<svg width="14" height="8" viewBox="0 0 14 8" fill="none" xmlns="http://www.w3.org/2000/svg">
<path d="M0.696793 7.63255C0.596793 7.53255 0.549571 7.41589 0.555126 7.28255C0.560682 7.14922 0.607904 7.03255 0.696793 6.93255L4.84679 2.78255C4.90235 2.727 4.9579 2.68811 5.01346 2.66589C5.06902 2.64366 5.13013 2.63255 5.19679 2.63255C5.26346 2.63255 5.32457 2.64366 5.38013 2.66589C5.43568 2.68811 5.49124 2.727 5.54679 2.78255L7.98013 5.21589L11.9968 1.19922H10.3801C10.2357 1.19922 10.1162 1.152 10.0218 1.05755C9.92735 0.963108 9.88013 0.843663 9.88013 0.699219C9.88013 0.554774 9.92735 0.43533 10.0218 0.340885C10.1162 0.246441 10.2357 0.199219 10.3801 0.199219H13.1635C13.3079 0.199219 13.4273 0.246441 13.5218 0.340885C13.6162 0.43533 13.6635 0.554774 13.6635 0.699219V3.48255C13.6635 3.61589 13.6162 3.73255 13.5218 3.83255C13.4273 3.93255 13.3135 3.98255 13.1801 3.98255C13.0468 3.98255 12.9301 3.93255 12.8301 3.83255C12.7301 3.73255 12.6801 3.61589 12.6801 3.48255V1.93255L8.31346 6.29922C8.2579 6.35477 8.20235 6.39366 8.14679 6.41589C8.09124 6.43811 8.03013 6.44922 7.96346 6.44922C7.89679 6.44922 7.83568 6.43811 7.78013 6.41589C7.72457 6.39366 7.66902 6.35477 7.61346 6.29922L5.18013 3.86589L1.39679 7.64922C1.3079 7.73811 1.19402 7.78255 1.05513 7.78255C0.916237 7.78255 0.796793 7.73255 0.696793 7.63255Z" fill="#376066" fill-opacity="0.8"/>
</svg>
