<svg width="12" height="12" viewBox="0 0 12 12" fill="none" xmlns="http://www.w3.org/2000/svg">
<g clip-path="url(#clip0_2513_13175)">
<path fill-rule="evenodd" clip-rule="evenodd" d="M6.41345 0.857143C6.41345 0.383756 6.05452 0 5.61176 0C5.16901 0 4.81008 0.383756 4.81008 0.857143V5.14286H0.801681C0.358924 5.14286 0 5.52662 0 6C0 6.47338 0.358924 6.85714 0.801681 6.85714H4.81008V11.1429C4.81008 11.6163 5.16901 12 5.61176 12C6.05452 12 6.41345 11.6163 6.41345 11.1429V6.85714H10.4218C10.8646 6.85714 11.2235 6.47338 11.2235 6C11.2235 5.52662 10.8646 5.14286 10.4218 5.14286H6.41345V0.857143Z" fill="white"/>
</g>
<defs>
<clipPath id="clip0_2513_13175">
<rect width="11.2235" height="12" fill="white"/>
</clipPath>
</defs>
</svg>
