<svg width="26" height="27" viewBox="0 0 26 27" fill="none" xmlns="http://www.w3.org/2000/svg">
<g filter="url(#filter0_i_690_33027)">
<rect width="26" height="26" rx="13" transform="matrix(4.22123e-08 -1 -1 -4.52638e-08 26 26.1907)" fill="#243958" fill-opacity="0.73"/>
<path fill-rule="evenodd" clip-rule="evenodd" d="M10.8902 13.1916L15.7628 8.27805C16.1235 7.91391 16.1235 7.32661 15.7628 6.96247C15.591 6.78852 15.3566 6.69067 15.1121 6.69067C14.8676 6.69067 14.6333 6.78852 14.4614 6.96247L8.93807 12.5329C8.57628 12.8966 8.57628 13.4847 8.93807 13.8485L14.4612 19.4189C14.6333 19.5928 14.8676 19.6907 15.1121 19.6907C15.3566 19.6907 15.591 19.5928 15.7631 19.4189C16.1235 19.0547 16.1235 18.4674 15.7626 18.1033L10.8902 13.1916Z" fill="white"/>
<path fill-rule="evenodd" clip-rule="evenodd" d="M10.8902 13.1916L15.7628 8.27805C16.1235 7.91391 16.1235 7.32661 15.7628 6.96247C15.591 6.78852 15.3566 6.69067 15.1121 6.69067C14.8676 6.69067 14.6333 6.78852 14.4614 6.96247L8.93807 12.5329C8.57628 12.8966 8.57628 13.4847 8.93807 13.8485L14.4612 19.4189C14.6333 19.5928 14.8676 19.6907 15.1121 19.6907C15.3566 19.6907 15.591 19.5928 15.7631 19.4189C16.1235 19.0547 16.1235 18.4674 15.7626 18.1033L10.8902 13.1916Z" fill="white" style="mix-blend-mode:overlay"/>
</g>
<defs>
<filter id="filter0_i_690_33027" x="0" y="0.190674" width="28" height="30" filterUnits="userSpaceOnUse" color-interpolation-filters="sRGB">
<feFlood flood-opacity="0" result="BackgroundImageFix"/>
<feBlend mode="normal" in="SourceGraphic" in2="BackgroundImageFix" result="shape"/>
<feColorMatrix in="SourceAlpha" type="matrix" values="0 0 0 0 0 0 0 0 0 0 0 0 0 0 0 0 0 0 127 0" result="hardAlpha"/>
<feOffset dx="2" dy="4"/>
<feGaussianBlur stdDeviation="5"/>
<feComposite in2="hardAlpha" operator="arithmetic" k2="-1" k3="1"/>
<feColorMatrix type="matrix" values="0 0 0 0 0.770897 0 0 0 0 0.624875 0 0 0 0 0.624875 0 0 0 0.25 0"/>
<feBlend mode="normal" in2="shape" result="effect1_innerShadow_690_33027"/>
</filter>
</defs>
</svg>
