<svg width="13" height="15" viewBox="0 0 13 15" fill="none" xmlns="http://www.w3.org/2000/svg">
<path opacity="0.8" d="M7.60677 9.48582H2.9401V10.9202H7.60677V9.48582ZM10.9401 13.0718H1.60677V5.18268H10.9401V13.0718ZM10.9401 1.59673H10.2734V0.162354H8.9401V1.59673H3.60677V0.162354H2.27344V1.59673H1.60677C0.866771 1.59673 0.273438 2.2422 0.273438 3.03111V13.0718C0.273438 13.4522 0.413913 13.817 0.663962 14.086C0.91401 14.355 1.25315 14.5061 1.60677 14.5061H10.9401C11.2937 14.5061 11.6329 14.355 11.8829 14.086C12.133 13.817 12.2734 13.4522 12.2734 13.0718V3.03111C12.2734 2.65069 12.133 2.28585 11.8829 2.01685C11.6329 1.74785 11.2937 1.59673 10.9401 1.59673ZM9.60677 6.61706H2.9401V8.05144H9.60677V6.61706Z" fill="#636363"/>
</svg>
