<svg width="12" height="15" viewBox="0 0 12 15" fill="none" xmlns="http://www.w3.org/2000/svg">
<path opacity="1" d="M7.33333 9.75H2.66667V11.25H7.33333V9.75ZM10.6667 13.5H1.33333V5.25H10.6667V13.5ZM10.6667 1.5H10V0H8.66667V1.5H3.33333V0H2V1.5H1.33333C0.593333 1.5 0 2.175 0 3V13.5C0 13.8978 0.140476 14.2794 0.390524 14.5607C0.640573 14.842 0.979711 15 1.33333 15H10.6667C11.0203 15 11.3594 14.842 11.6095 14.5607C11.8595 14.2794 12 13.8978 12 13.5V3C12 2.60218 11.8595 2.22064 11.6095 1.93934C11.3594 1.65804 11.0203 1.5 10.6667 1.5ZM9.33333 6.75H2.66667V8.25H9.33333V6.75Z" fill="#636363"/>
</svg>
