<?xml version="1.0" encoding="UTF-8"?>
<svg xmlns="http://www.w3.org/2000/svg" xmlns:xlink="http://www.w3.org/1999/xlink" width="17px" height="17px" viewBox="0 0 17 17" version="1.1">
<g id="surface1">
<path style=" stroke:none;fill-rule:nonzero;fill:rgb(72.156864%,70.588237%,76.47059%);fill-opacity:1;" d="M 10.625 3.1875 L 6.375 3.1875 L 4.800781 0.828125 C 4.566406 0.472656 4.816406 0 5.242188 0 L 11.757812 0 C 12.183594 0 12.433594 0.472656 12.199219 0.828125 Z M 6.375 4.25 L 10.625 4.25 C 10.75 4.332031 10.894531 4.425781 11.054688 4.527344 C 12.9375 5.734375 17 8.332031 17 13.8125 C 17 15.570312 15.570312 17 13.8125 17 L 3.1875 17 C 1.429688 17 0 15.570312 0 13.8125 C 0 8.332031 4.0625 5.734375 5.945312 4.527344 C 6.101562 4.425781 6.25 4.332031 6.375 4.25 Z M 9.164062 7.171875 C 9.164062 6.804688 8.867188 6.507812 8.5 6.507812 C 8.132812 6.507812 7.835938 6.804688 7.835938 7.171875 L 7.835938 7.636719 C 7.582031 7.691406 7.332031 7.78125 7.097656 7.917969 C 6.636719 8.195312 6.238281 8.675781 6.242188 9.375 C 6.246094 10.050781 6.640625 10.476562 7.0625 10.726562 C 7.425781 10.945312 7.882812 11.085938 8.246094 11.191406 L 8.300781 11.210938 C 8.71875 11.335938 9.023438 11.433594 9.230469 11.566406 C 9.398438 11.671875 9.421875 11.742188 9.425781 11.835938 C 9.429688 12.003906 9.367188 12.101562 9.230469 12.183594 C 9.0625 12.289062 8.800781 12.351562 8.519531 12.339844 C 8.152344 12.328125 7.804688 12.210938 7.355469 12.058594 C 7.277344 12.03125 7.199219 12.007812 7.117188 11.980469 C 6.765625 11.863281 6.390625 12.050781 6.277344 12.398438 C 6.160156 12.742188 6.347656 13.121094 6.695312 13.238281 C 6.757812 13.257812 6.828125 13.28125 6.894531 13.308594 C 7.171875 13.402344 7.492188 13.515625 7.832031 13.585938 L 7.832031 14.070312 C 7.832031 14.4375 8.132812 14.734375 8.496094 14.734375 C 8.863281 14.734375 9.160156 14.4375 9.160156 14.070312 L 9.160156 13.613281 C 9.425781 13.558594 9.691406 13.464844 9.929688 13.3125 C 10.40625 13.019531 10.765625 12.515625 10.753906 11.820312 C 10.746094 11.144531 10.367188 10.710938 9.9375 10.4375 C 9.554688 10.199219 9.078125 10.054688 8.707031 9.941406 L 8.683594 9.933594 C 8.257812 9.804688 7.957031 9.710938 7.742188 9.585938 C 7.570312 9.484375 7.566406 9.421875 7.566406 9.363281 C 7.566406 9.242188 7.613281 9.148438 7.773438 9.054688 C 7.953125 8.949219 8.222656 8.886719 8.488281 8.886719 C 8.804688 8.890625 9.15625 8.960938 9.523438 9.0625 C 9.878906 9.152344 10.238281 8.945312 10.335938 8.589844 C 10.433594 8.234375 10.21875 7.871094 9.863281 7.777344 C 9.648438 7.71875 9.410156 7.664062 9.164062 7.621094 L 9.164062 7.160156 Z M 9.164062 7.171875 "/>
</g>
</svg>
