<?xml version="1.0" encoding="UTF-8"?>
<svg xmlns="http://www.w3.org/2000/svg" xmlns:xlink="http://www.w3.org/1999/xlink" width="19px" height="19px" viewBox="0 0 19 19" version="1.1">
<g id="surface1">
<path style="fill-rule:nonzero;fill:rgb(72.156864%,70.588237%,76.47059%);fill-opacity:1;stroke-width:1;stroke-linecap:butt;stroke-linejoin:miter;stroke:rgb(72.156864%,70.588237%,76.47059%);stroke-opacity:1;stroke-miterlimit:4;" d="M 9.996715 3.000001 L 3.996712 3.000001 C 3.449015 3.000001 3.000001 3.449015 3.000001 3.996712 L 3.000001 9.996715 C 3.000001 10.549347 3.449015 11.003294 3.996712 11.003294 L 9.996715 11.003294 C 10.549347 11.003294 11.003294 10.549347 11.003294 9.996715 L 11.003294 3.996712 C 11.003294 3.449015 10.549347 3.000001 9.996715 3.000001 Z M 9.000004 9.000004 L 5.003292 9.000004 L 5.003292 5.003292 L 9.000004 5.003292 Z M 20.003298 3.000001 L 14.003296 3.000001 C 13.450664 3.000001 12.996716 3.449015 12.996716 3.996712 L 12.996716 9.996715 C 12.996716 10.549347 13.450664 11.003294 14.003296 11.003294 L 20.003298 11.003294 C 20.550996 11.003294 21.000009 10.549347 21.000009 9.996715 L 21.000009 3.996712 C 21.000009 3.449015 20.550996 3.000001 20.003298 3.000001 Z M 18.996719 9.000004 L 15.000007 9.000004 L 15.000007 5.003292 L 18.996719 5.003292 Z M 9.996715 12.996716 L 3.996712 12.996716 C 3.449015 12.996716 3.000001 13.450664 3.000001 14.003296 L 3.000001 20.003298 C 3.000001 20.550996 3.449015 21.000009 3.996712 21.000009 L 9.996715 21.000009 C 10.549347 21.000009 11.003294 20.550996 11.003294 20.003298 L 11.003294 14.003296 C 11.003294 13.450664 10.549347 12.996716 9.996715 12.996716 Z M 9.000004 18.996719 L 5.003292 18.996719 L 5.003292 15.000007 L 9.000004 15.000007 Z M 17.003297 12.996716 C 14.797704 12.996716 12.996716 14.797704 12.996716 17.003297 C 12.996716 19.20889 14.797704 21.000009 17.003297 21.000009 C 19.20889 21.000009 21.000009 19.20889 21.000009 17.003297 C 21.000009 14.797704 19.20889 12.996716 17.003297 12.996716 Z M 17.003297 18.996719 C 15.898033 18.996719 15.000007 18.103627 15.000007 17.003297 C 15.000007 15.898033 15.898033 15.000007 17.003297 15.000007 C 18.103627 15.000007 18.996719 15.898033 18.996719 17.003297 C 18.996719 18.103627 18.103627 18.996719 17.003297 18.996719 Z M 17.003297 18.996719 " transform="matrix(0.791666,0,0,0.791666,0,0)"/>
</g>
</svg>
