<svg width="18" height="18" viewBox="0 0 18 18" fill="none" xmlns="http://www.w3.org/2000/svg">
<path fill-rule="evenodd" clip-rule="evenodd" d="M1.31868 0H5.93406C6.66235 0 7.25275 0.590394 7.25275 1.31868V5.93406C7.25275 6.66235 6.66235 7.25275 5.93406 7.25275H1.31868C0.590394 7.25275 0 6.66235 0 5.93406V1.31868C0 0.590394 0.590394 0 1.31868 0ZM11.2088 9.89008H15.8242C16.5524 9.89008 17.1429 10.4805 17.1429 11.2088V15.8242C17.1429 16.5524 16.5524 17.1429 15.8242 17.1429H11.2088C10.4805 17.1429 9.89008 16.5524 9.89008 15.8242V11.2088C9.89008 10.4805 10.4805 9.89008 11.2088 9.89008ZM5.93406 9.89008H1.31868C0.590394 9.89008 0 10.4805 0 11.2088V15.8242C0 16.5524 0.590394 17.1429 1.31868 17.1429H5.93406C6.66235 17.1429 7.25275 16.5524 7.25275 15.8242V11.2088C7.25275 10.4805 6.66235 9.89008 5.93406 9.89008ZM13.1764 0C13.6837 0 14.0947 0.411167 14.0947 0.918367V3.04008H16.2162C16.7235 3.04008 17.1345 3.45124 17.1345 3.95844C17.1345 4.46564 16.7235 4.87681 16.2162 4.87681H14.0947V6.99847C14.0947 7.50567 13.6837 7.91684 13.1764 7.91684C12.6692 7.91684 12.258 7.50567 12.258 6.99847V4.87681H10.1361C9.62892 4.87681 9.21775 4.46564 9.21775 3.95844C9.21775 3.45124 9.62892 3.04008 10.1361 3.04008H12.258V0.918367C12.258 0.411167 12.6692 0 13.1764 0Z" fill="#B8BCC3"/>
</svg>
