<svg width="15" height="15" viewBox="0 0 15 15" fill="none" xmlns="http://www.w3.org/2000/svg">
<path fill-rule="evenodd" clip-rule="evenodd" d="M1.60714 0C0.719543 3.87964e-08 -3.87986e-08 0.719543 0 1.60714L5.1517e-07 13.3929C5.53968e-07 14.2804 0.719543 15 1.60714 15H13.3929C14.2804 15 15 14.2804 15 13.3929V1.60714C15 0.719543 14.2804 4.67824e-07 13.3929 5.06623e-07L1.60714 0ZM4.15179 6.30533V11.7857C4.15179 12.1556 4.45159 12.4554 4.82143 12.4554C5.19125 12.4554 5.49107 12.1556 5.49107 11.7857V6.30534C6.1959 6.03576 6.69643 5.35305 6.69643 4.55344C6.69643 3.51791 5.85697 2.67844 4.82143 2.67844C3.78589 2.67844 2.94643 3.51791 2.94643 4.55344C2.94643 5.35305 3.44696 6.03576 4.15179 6.30533ZM12.0536 8.30348C12.0536 9.10308 11.553 9.78579 10.8482 10.0554V11.7857C10.8482 12.1556 10.5484 12.4554 10.1786 12.4554C9.80874 12.4554 9.50893 12.1556 9.50893 11.7857V10.0554C8.8041 9.78579 8.30357 9.10308 8.30357 8.30348C8.30357 7.50388 8.8041 6.82118 9.50893 6.55159V3.21429C9.50893 2.84445 9.80874 2.54464 10.1786 2.54464C10.5484 2.54464 10.8482 2.84445 10.8482 3.21429V6.55159C11.553 6.82117 12.0536 7.50387 12.0536 8.30348Z" fill="#B8BCC3"/>
</svg>
