<svg width="18" height="17" viewBox="0 0 18 17" fill="none" xmlns="http://www.w3.org/2000/svg">
<path d="M11.0907 9.14859C13.9584 9.14859 16.2831 8.1154 16.2831 6.8409C16.2831 5.56639 13.9584 4.5332 11.0907 4.5332C8.22311 4.5332 5.89844 5.56639 5.89844 6.8409C5.89844 8.1154 8.22311 9.14859 11.0907 9.14859Z" stroke="#A86F43" stroke-width="1.8" stroke-linecap="round" stroke-linejoin="round"/>
<path d="M5.89844 6.84082V13.7639C5.89844 15.0331 8.20613 16.0716 11.0907 16.0716C13.9754 16.0716 16.2831 15.0331 16.2831 13.7639V6.84082" stroke="#A86F43" stroke-width="1.8" stroke-linecap="round" stroke-linejoin="round"/>
<path d="M16.2831 10.3022C16.2831 11.5715 13.9754 12.6099 11.0907 12.6099C8.20613 12.6099 5.89844 11.5715 5.89844 10.3022" stroke="#A86F43" stroke-width="1.8" stroke-linecap="round" stroke-linejoin="round"/>
<path d="M10.9736 2.23551C9.62528 1.40344 8.05586 1.00102 6.47356 1.08166C3.60048 1.08166 1.28125 2.12013 1.28125 3.38936C1.28125 4.07013 1.95048 4.68166 3.01202 5.12013" stroke="#A86F43" stroke-width="1.8" stroke-linecap="round" stroke-linejoin="round"/>
<path d="M3.01202 12.0433C1.95048 11.6048 1.28125 10.9933 1.28125 10.3125V3.3894" stroke="#A86F43" stroke-width="1.8" stroke-linecap="round" stroke-linejoin="round"/>
<path d="M3.01202 8.5816C1.95048 8.14314 1.28125 7.5316 1.28125 6.85083" stroke="#A86F43" stroke-width="1.8" stroke-linecap="round" stroke-linejoin="round"/>
</svg>
