<svg width="16" height="17" viewBox="0 0 16 17" fill="none" xmlns="http://www.w3.org/2000/svg">
<g clip-path="url(#clip0_690_32814)">
<path d="M10.3793 9.14834C13.247 9.14834 15.5716 8.11516 15.5716 6.84065C15.5716 5.56615 13.247 4.53296 10.3793 4.53296C7.51169 4.53296 5.18701 5.56615 5.18701 6.84065C5.18701 8.11516 7.51169 9.14834 10.3793 9.14834Z" stroke="#9B5B28" stroke-width="1.5" stroke-linecap="round" stroke-linejoin="round"/>
<path d="M5.18701 6.8407V13.7638C5.18701 15.033 7.4947 16.0715 10.3793 16.0715C13.2639 16.0715 15.5716 15.033 15.5716 13.7638V6.8407" stroke="#9B5B28" stroke-width="1.5" stroke-linecap="round" stroke-linejoin="round"/>
<path d="M15.5716 10.3021C15.5716 11.5714 13.2639 12.6098 10.3793 12.6098C7.4947 12.6098 5.18701 11.5714 5.18701 10.3021" stroke="#9B5B28" stroke-width="1.5" stroke-linecap="round" stroke-linejoin="round"/>
<path d="M10.2638 2.23539C8.91556 1.40332 7.34614 1.0009 5.76384 1.08154C2.89076 1.08154 0.571533 2.12 0.571533 3.38923C0.571533 4.07 1.24076 4.68154 2.3023 5.12" stroke="#9B5B28" stroke-width="1.5" stroke-linecap="round" stroke-linejoin="round"/>
<path d="M2.3023 12.0431C1.24076 11.6047 0.571533 10.9931 0.571533 10.3124V3.38928" stroke="#9B5B28" stroke-width="1.5" stroke-linecap="round" stroke-linejoin="round"/>
<path d="M2.3023 8.5816C1.24076 8.14314 0.571533 7.5316 0.571533 6.85083" stroke="#9B5B28" stroke-width="1.5" stroke-linecap="round" stroke-linejoin="round"/>
</g>
<defs>
<clipPath id="clip0_690_32814">
<rect width="16" height="16" fill="white" transform="translate(0 0.5)"/>
</clipPath>
</defs>
</svg>
