<svg width="14" height="15" viewBox="0 0 14 15" fill="none" xmlns="http://www.w3.org/2000/svg">
<g clip-path="url(#clip0_2444_22596)">
<path fill-rule="evenodd" clip-rule="evenodd" d="M4.76256 2.32408C5.09075 1.99589 5.53587 1.81152 6 1.81152C6.46413 1.81152 6.90925 1.99589 7.23744 2.32408C7.4448 2.53145 7.59475 2.78549 7.67705 3.06152H4.32295C4.40525 2.78549 4.5552 2.53145 4.76256 2.32408ZM2.78868 3.06152C2.89405 2.38473 3.21153 1.75379 3.7019 1.26343C4.3114 0.653933 5.13805 0.311523 6 0.311523C6.86195 0.311523 7.6886 0.653933 8.2981 1.26343C8.78847 1.75379 9.106 2.38473 9.2113 3.06152H12C12.4142 3.06152 12.75 3.39731 12.75 3.81152C12.75 4.22574 12.4142 4.56152 12 4.56152H11V12.8115C11 13.2093 10.842 13.5909 10.5607 13.8722C10.2794 14.1535 9.8978 14.3115 9.5 14.3115H2.5C2.10217 14.3115 1.72064 14.1535 1.43934 13.8722C1.15804 13.5909 1 13.2093 1 12.8115V4.56152H0C-0.414214 4.56152 -0.75 4.22574 -0.75 3.81152C-0.75 3.39731 -0.414214 3.06152 0 3.06152H2.78868ZM4 6.18798C4.34518 6.18798 4.625 6.46781 4.625 6.81298V10.8145C4.625 11.1596 4.34518 11.4395 4 11.4395C3.65482 11.4395 3.375 11.1596 3.375 10.8145V6.81298C3.375 6.46781 3.65482 6.18798 4 6.18798ZM8.625 6.81298C8.625 6.46781 8.34518 6.18798 8 6.18798C7.65482 6.18798 7.375 6.46781 7.375 6.81298V10.8145C7.375 11.1596 7.65482 11.4395 8 11.4395C8.34518 11.4395 8.625 11.1596 8.625 10.8145V6.81298Z" fill="#BF4343" fill-opacity="0.78"/>
</g>
<defs>
<clipPath id="clip0_2444_22596">
<rect y="0.311523" width="14" height="14" rx="4" fill="white"/>
</clipPath>
</defs>
</svg>
