<svg width="33" height="33" viewBox="0 0 33 33" fill="none" xmlns="http://www.w3.org/2000/svg">
<g filter="url(#filter0_ii_2256_23968)">
<rect width="33" height="33" rx="16.5" fill="white"/>
<g clip-path="url(#clip0_2256_23968)">
<path fill-rule="evenodd" clip-rule="evenodd" d="M15.7626 11.0126C16.0907 10.6844 16.5359 10.5 17 10.5C17.4641 10.5 17.9093 10.6844 18.2374 11.0126C18.4448 11.2199 18.5947 11.474 18.677 11.75H15.3229C15.4053 11.474 15.5552 11.2199 15.7626 11.0126ZM13.7887 11.75C13.8941 11.0732 14.2115 10.4423 14.7019 9.9519C15.3114 9.34241 16.1381 9 17 9C17.8619 9 18.6886 9.34241 19.2981 9.9519C19.7885 10.4423 20.106 11.0732 20.2113 11.75H23C23.4142 11.75 23.75 12.0858 23.75 12.5C23.75 12.9142 23.4142 13.25 23 13.25H22V21.5C22 21.8978 21.842 22.2794 21.5607 22.5607C21.2794 22.842 20.8978 23 20.5 23H13.5C13.1022 23 12.7206 22.842 12.4393 22.5607C12.158 22.2794 12 21.8978 12 21.5V13.25H11C10.5858 13.25 10.25 12.9142 10.25 12.5C10.25 12.0858 10.5858 11.75 11 11.75H13.7887ZM15 14.8765C15.3452 14.8765 15.625 15.1563 15.625 15.5015V19.503C15.625 19.8481 15.3452 20.128 15 20.128C14.6548 20.128 14.375 19.8481 14.375 19.503V15.5015C14.375 15.1563 14.6548 14.8765 15 14.8765ZM19.625 15.5015C19.625 15.1563 19.3452 14.8765 19 14.8765C18.6548 14.8765 18.375 15.1563 18.375 15.5015V19.503C18.375 19.8481 18.6548 20.128 19 20.128C19.3452 20.128 19.625 19.8481 19.625 19.503V15.5015Z" fill="#BF4343" fill-opacity="0.78"/>
</g>
</g>
<defs>
<filter id="filter0_ii_2256_23968" x="-2" y="-2" width="37" height="37" filterUnits="userSpaceOnUse" color-interpolation-filters="sRGB">
<feFlood flood-opacity="0" result="BackgroundImageFix"/>
<feBlend mode="normal" in="SourceGraphic" in2="BackgroundImageFix" result="shape"/>
<feColorMatrix in="SourceAlpha" type="matrix" values="0 0 0 0 0 0 0 0 0 0 0 0 0 0 0 0 0 0 127 0" result="hardAlpha"/>
<feOffset dx="2" dy="2"/>
<feGaussianBlur stdDeviation="1.5"/>
<feComposite in2="hardAlpha" operator="arithmetic" k2="-1" k3="1"/>
<feColorMatrix type="matrix" values="0 0 0 0 0.968566 0 0 0 0 0.88803 0 0 0 0 0.88803 0 0 0 0.35 0"/>
<feBlend mode="normal" in2="shape" result="effect1_innerShadow_2256_23968"/>
<feColorMatrix in="SourceAlpha" type="matrix" values="0 0 0 0 0 0 0 0 0 0 0 0 0 0 0 0 0 0 127 0" result="hardAlpha"/>
<feOffset dx="-2" dy="-2"/>
<feGaussianBlur stdDeviation="1"/>
<feComposite in2="hardAlpha" operator="arithmetic" k2="-1" k3="1"/>
<feColorMatrix type="matrix" values="0 0 0 0 1 0 0 0 0 0.952365 0 0 0 0 0.952365 0 0 0 0.59 0"/>
<feBlend mode="normal" in2="effect1_innerShadow_2256_23968" result="effect2_innerShadow_2256_23968"/>
</filter>
<clipPath id="clip0_2256_23968">
<rect width="14" height="14" fill="white" transform="translate(10 9)"/>
</clipPath>
</defs>
</svg>
