<svg width="14" height="14" viewBox="0 0 14 14" fill="none" xmlns="http://www.w3.org/2000/svg">
<g clip-path="url(#clip0_2378_19857)">
<path fill-rule="evenodd" clip-rule="evenodd" d="M4.76256 2.01256C5.09075 1.68437 5.53587 1.5 6 1.5C6.46413 1.5 6.90925 1.68437 7.23744 2.01256C7.4448 2.21993 7.59475 2.47397 7.67705 2.75H4.32295C4.40525 2.47397 4.5552 2.21993 4.76256 2.01256ZM2.78868 2.75C2.89405 2.07321 3.21153 1.44227 3.7019 0.951903C4.3114 0.34241 5.13805 0 6 0C6.86195 0 7.6886 0.34241 8.2981 0.951903C8.78847 1.44227 9.106 2.07321 9.2113 2.75H12C12.4142 2.75 12.75 3.08579 12.75 3.5C12.75 3.91422 12.4142 4.25 12 4.25H11V12.5C11 12.8978 10.842 13.2794 10.5607 13.5607C10.2794 13.842 9.8978 14 9.5 14H2.5C2.10217 14 1.72064 13.842 1.43934 13.5607C1.15804 13.2794 1 12.8978 1 12.5V4.25H0C-0.414214 4.25 -0.75 3.91422 -0.75 3.5C-0.75 3.08579 -0.414214 2.75 0 2.75H2.78868ZM4 5.87646C4.34518 5.87646 4.625 6.15629 4.625 6.50146V10.503C4.625 10.8481 4.34518 11.128 4 11.128C3.65482 11.128 3.375 10.8481 3.375 10.503V6.50146C3.375 6.15629 3.65482 5.87646 4 5.87646ZM8.625 6.50146C8.625 6.15629 8.34518 5.87646 8 5.87646C7.65482 5.87646 7.375 6.15629 7.375 6.50146V10.503C7.375 10.8481 7.65482 11.128 8 11.128C8.34518 11.128 8.625 10.8481 8.625 10.503V6.50146Z" fill="#BF4343" fill-opacity="0.78"/>
</g>
<defs>
<clipPath id="clip0_2378_19857">
<rect width="14" height="14" rx="4" fill="white"/>
</clipPath>
</defs>
</svg>
