<svg width="14" height="14" viewBox="0 0 14 14" fill="none" xmlns="http://www.w3.org/2000/svg">
<path fill-rule="evenodd" clip-rule="evenodd" d="M0.266545 1.32428C-0.0263482 1.03138 -0.0263482 0.556508 0.266545 0.263615C0.559439 -0.0292779 1.03432 -0.0292779 1.32721 0.263615L3.95582 2.89222C4.86366 2.39338 5.8958 2.04019 7.0029 2.04019C8.53489 2.04019 9.92333 2.71648 11.0375 3.51919C12.1557 4.32481 13.0409 5.28882 13.5768 5.9365L13.5813 5.94198C13.8206 6.23977 13.9466 6.61713 13.9466 7.00004C13.9466 7.38295 13.8206 7.76032 13.5813 8.0581L13.5768 8.06359C13.0882 8.65413 12.3091 9.50766 11.3279 10.2643L13.7393 12.6756C14.0322 12.9685 14.0322 13.4434 13.7393 13.7363C13.4464 14.0292 12.9715 14.0292 12.6786 13.7363L0.266545 1.32428ZM9.02004 7.95645C9.15775 7.66655 9.23481 7.34226 9.23481 6.99996C9.23481 5.76732 8.23555 4.76806 7.0029 4.76806C6.66061 4.76806 6.33631 4.84511 6.04641 4.98282L9.02004 7.95645ZM0.428981 5.9365C0.748429 5.55041 1.19202 5.05192 1.73508 4.54159L8.8391 11.6456C8.25848 11.8417 7.64323 11.9599 7.0029 11.9599C5.47092 11.9599 4.08248 11.2836 2.96831 10.4809C1.85011 9.67528 0.964874 8.71127 0.428981 8.06359L0.424507 8.0581C0.185192 7.76032 0.0591881 7.38295 0.0591881 7.00004C0.0591881 6.61713 0.185192 6.23977 0.424507 5.94198L0.428981 5.9365Z" fill="white"/>
</svg>
