<svg width="19" height="19" viewBox="0 0 19 19" fill="none" xmlns="http://www.w3.org/2000/svg">
<g clip-path="url(#clip0_1297_21708)">
<path fill-rule="evenodd" clip-rule="evenodd" d="M1.09375 8.01219V10.1998C1.09375 11.444 3.08558 12.4891 5.75393 12.7211V9.46579C5.75393 9.41384 5.75535 9.36245 5.75814 9.31164C4.27508 9.20579 2.92801 8.89112 1.87066 8.41938C1.59646 8.29705 1.33564 8.16142 1.09375 8.01219ZM12.6561 3.40925V5.29845C11.0685 5.35066 9.5773 5.6586 8.40086 6.18148C7.75511 6.46847 7.13312 6.85181 6.65083 7.35858C6.54082 7.47418 6.43502 7.59984 6.33707 7.73513C4.81243 7.67776 3.48106 7.37941 2.52496 6.95284C1.99051 6.7144 1.60837 6.45153 1.37063 6.20068C1.2055 6.02644 1.12614 5.87696 1.09375 5.75371V3.40925C1.09375 1.9902 3.68206 0.839844 6.87491 0.839844C10.0677 0.839844 12.6561 1.9902 12.6561 3.40925ZM6.87474 4.60569C9.1042 4.60569 10.9115 4.08594 10.9115 3.44478C10.9115 2.80364 9.1042 2.28387 6.87474 2.28387C4.64528 2.28387 2.83794 2.80364 2.83794 3.44478C2.83794 4.08594 4.64528 4.60569 6.87474 4.60569ZM7.3598 16.2563V14.0687C7.6017 14.218 7.86252 14.3536 8.13671 14.4759C9.45412 15.0637 11.2213 15.4076 13.1408 15.4076C15.0604 15.4076 16.8275 15.0637 18.145 14.4759C18.4193 14.3535 18.6802 14.2178 18.9221 14.0685V16.2563C18.9221 17.6694 16.3527 18.8257 13.141 18.8257C9.92921 18.8257 7.3598 17.6694 7.3598 16.2563ZM7.63668 12.2572C7.47156 12.083 7.39219 11.9335 7.3598 11.8102V9.46579C7.3598 8.04675 9.94812 6.89639 13.141 6.89639C16.3338 6.89639 18.9221 8.04675 18.9221 9.46579V11.8094C18.8899 11.9328 18.8105 12.0826 18.645 12.2572C18.4072 12.5081 18.0251 12.7709 17.4907 13.0094C16.4238 13.4854 14.8894 13.8017 13.1408 13.8017C11.3922 13.8017 9.85794 13.4854 8.79101 13.0094C8.25656 12.7709 7.87442 12.5081 7.63668 12.2572ZM17.1776 9.50133C17.1776 10.1425 15.3703 10.6622 13.1408 10.6622C10.9113 10.6622 9.104 10.1425 9.104 9.50133C9.104 8.86017 10.9113 8.34042 13.1408 8.34042C15.3703 8.34042 17.1776 8.86017 17.1776 9.50133Z" fill="#334155"/>
</g>
<defs>
<clipPath id="clip0_1297_21708">
<rect width="17.9858" height="17.9858" fill="white" transform="translate(0.9375 0.839844)"/>
</clipPath>
</defs>
</svg>
