<svg width="17" height="17" viewBox="0 0 17 17" fill="none" xmlns="http://www.w3.org/2000/svg">
<g clip-path="url(#clip0_1297_21636)">
<path fill-rule="evenodd" clip-rule="evenodd" d="M9.83579 5.94526C9.83579 7.86096 8.28279 9.41395 6.36709 9.41395C4.45139 9.41395 2.8984 7.86096 2.8984 5.94526C2.8984 4.02955 4.45139 2.47656 6.36709 2.47656C8.28279 2.47656 9.83579 4.02955 9.83579 5.94526ZM6.36709 10.5701C3.17425 10.5701 0.585938 13.1585 0.585938 16.3513C0.585938 16.6705 0.844769 16.9294 1.16405 16.9294H11.5701C11.8894 16.9294 12.1482 16.6705 12.1482 16.3513C12.1482 13.1585 9.55993 10.5701 6.36709 10.5701ZM16.1952 16.9294H13.5098C13.5644 16.7463 13.5937 16.5521 13.5937 16.3513C13.5937 13.9913 12.4624 11.8956 10.7126 10.5768C10.8052 10.5724 10.8984 10.5701 10.9921 10.5701C14.1849 10.5701 16.7733 13.1585 16.7733 16.3513C16.7733 16.6705 16.5144 16.9294 16.1952 16.9294ZM10.9921 9.41395C10.6432 9.41395 10.3064 9.36244 9.98879 9.26662C10.7913 8.39201 11.2812 7.22584 11.2812 5.94526C11.2812 4.66467 10.7913 3.4985 9.98878 2.62388C10.3064 2.52806 10.6432 2.47656 10.9921 2.47656C12.9078 2.47656 14.4608 4.02955 14.4608 5.94526C14.4608 7.86096 12.9078 9.41395 10.9921 9.41395Z" fill="#2D612F" fill-opacity="0.77"/>
</g>
<defs>
<clipPath id="clip0_1297_21636">
<rect width="16.1872" height="16.1872" fill="white" transform="translate(0.585938 0.742188)"/>
</clipPath>
</defs>
</svg>
