<svg width="19" height="19" viewBox="0 0 19 19" fill="none" xmlns="http://www.w3.org/2000/svg">
<g clip-path="url(#clip0_1297_21664)">
<path fill-rule="evenodd" clip-rule="evenodd" d="M7.87695 1.52598C9.00796 0.605922 10.6294 0.605922 11.7604 1.52598L11.9648 1.69221L12.2249 1.65042C13.6643 1.41913 15.0687 2.22986 15.5881 3.59217L15.682 3.83829L15.928 3.93214C17.2903 4.4516 18.1011 5.85583 17.8698 7.29535L17.8279 7.55542L17.9942 7.75975C18.9143 8.89077 18.9143 10.5122 17.9942 11.6433L17.8279 11.8476L17.8698 12.1077C18.1011 13.5472 17.2903 14.9514 15.928 15.4708L15.682 15.5647L15.5881 15.8109C15.0687 17.1732 13.6643 17.9838 12.2249 17.7526L11.9648 17.7108L11.7604 17.8771C10.6294 18.797 9.00796 18.797 7.87695 17.8771L7.6726 17.7108L7.41254 17.7526C5.97302 17.9838 4.56879 17.1732 4.04933 15.8109L3.95548 15.5647L3.70936 15.4708C2.34705 14.9514 1.53632 13.5472 1.76761 12.1077L1.8094 11.8476L1.64317 11.6433C0.72311 10.5122 0.72311 8.89077 1.64317 7.75975L1.8094 7.55542L1.76761 7.29535C1.53632 5.85583 2.34705 4.4516 3.70936 3.93214L3.95548 3.83829L4.04933 3.59217C4.56879 2.22986 5.97302 1.41913 7.41254 1.65042L7.67261 1.69221L7.87695 1.52598ZM13.5982 5.92199C13.2846 5.60842 12.7762 5.60842 12.4627 5.92199L6.03918 12.3455C5.72561 12.6591 5.72561 13.1675 6.03918 13.481C6.35274 13.7945 6.86113 13.7945 7.1747 13.481L13.5982 7.05751C13.9118 6.74395 13.9118 6.23556 13.5982 5.92199ZM7.24929 5.8474C6.53976 5.8474 5.96459 6.42259 5.96459 7.1321C5.96459 7.84163 6.53976 8.4168 7.24929 8.4168C7.95881 8.4168 8.53399 7.84163 8.53399 7.1321C8.53399 6.42259 7.95881 5.8474 7.24929 5.8474ZM12.3881 10.9862C11.6786 10.9862 11.1034 11.5614 11.1034 12.2709C11.1034 12.9804 11.6786 13.5556 12.3881 13.5556C13.0976 13.5556 13.6728 12.9804 13.6728 12.2709C13.6728 11.5614 13.0976 10.9862 12.3881 10.9862Z" fill="#7C0808" fill-opacity="0.73"/>
</g>
<defs>
<clipPath id="clip0_1297_21664">
<rect width="17.9858" height="17.9858" fill="white" transform="translate(0.789062 0.742188)"/>
</clipPath>
</defs>
</svg>
