<svg width="14" height="15" viewBox="0 0 14 15" fill="none" xmlns="http://www.w3.org/2000/svg">
<path d="M1.75 13.042H2.81875L10.15 5.66271L9.08125 4.58696L1.75 11.9662V13.042ZM0.25 14.5518V11.3434L10.15 1.39745C10.3 1.25905 10.4656 1.15211 10.6469 1.07662C10.8281 1.00112 11.0188 0.963379 11.2188 0.963379C11.4187 0.963379 11.6125 1.00112 11.8 1.07662C11.9875 1.15211 12.15 1.26534 12.2875 1.41633L13.3188 2.4732C13.4688 2.6116 13.5781 2.77517 13.6469 2.9639C13.7156 3.15263 13.75 3.34135 13.75 3.53008C13.75 3.73139 13.7156 3.92327 13.6469 4.1057C13.5781 4.28814 13.4688 4.45485 13.3188 4.60583L3.4375 14.5518H0.25ZM9.60625 5.13427L9.08125 4.58696L10.15 5.66271L9.60625 5.13427Z" fill="#109BDB"/>
</svg>
