<svg width="14" height="15" viewBox="0 0 14 15" fill="none" xmlns="http://www.w3.org/2000/svg">
<path d="M10.715 0.310547C10.5152 0.310547 10.3174 0.35047 10.1332 0.427971C9.95019 0.504991 9.78428 0.617581 9.64512 0.759199L1.40732 8.95701C1.34616 9.01787 1.30179 9.09352 1.27853 9.1766L0.0185299 13.6766C-0.0301752 13.8505 0.0187291 14.0372 0.146458 14.165C0.274188 14.2927 0.46088 14.3416 0.634827 14.2929L5.13483 13.0329C5.21791 13.0096 5.29356 12.9652 5.35442 12.9041L13.5521 4.66642L13.5535 4.66507C13.6934 4.5259 13.8045 4.36048 13.8804 4.17828C13.9566 3.9955 13.9958 3.79944 13.9958 3.60142C13.9958 3.4034 13.9566 3.20734 13.8804 3.02455C13.8045 2.84235 13.6934 2.67692 13.5535 2.53776L13.5521 2.53642L11.7859 0.760244C11.6466 0.618134 11.4803 0.50518 11.2968 0.427971C11.1126 0.35047 10.9148 0.310547 10.715 0.310547Z" fill="#109BDB"/>
</svg>
