<svg width="587" height="660" viewBox="0 0 587 660" fill="none" xmlns="http://www.w3.org/2000/svg">
<g clip-path="url(#clip0_3469_14534)">
<path d="M332.477 508C472.757 508 586.477 394.28 586.477 254C586.477 113.72 472.757 0 332.477 0C192.196 0 78.4766 113.72 78.4766 254C78.4766 394.28 192.196 508 332.477 508Z" fill="#F2F2F2"/>
<path d="M498.46 113.588H33.1668C32.1691 113.567 31.3775 112.741 31.3989 111.743C31.4195 110.775 32.1991 109.996 33.1668 109.975H498.46C499.458 109.997 500.249 110.823 500.228 111.82C500.207 112.788 499.428 113.568 498.46 113.588Z" fill="#CACACA"/>
<path d="M339.892 174.473H211.267C201.605 174.473 193.773 182.304 193.773 191.966V191.966C193.773 201.627 201.605 209.459 211.267 209.459H339.892C349.553 209.459 357.385 201.627 357.385 191.966C357.385 182.304 349.553 174.473 339.892 174.473Z" fill="white"/>
<path d="M128.173 244.445H422.983C432.645 244.445 440.477 252.277 440.477 261.939C440.477 271.6 432.645 279.432 422.983 279.432H128.173C118.512 279.432 110.68 271.6 110.68 261.939C110.68 252.277 118.512 244.445 128.173 244.445Z" fill="white"/>
<path d="M128.173 314.418H422.983C432.645 314.418 440.477 322.25 440.477 331.911C440.477 341.573 432.645 349.404 422.983 349.404H128.173C118.512 349.404 110.68 341.573 110.68 331.911C110.68 322.25 118.512 314.418 128.173 314.418Z" fill="white"/>
<path d="M91.6427 657.759L90.9489 657.691C67.4082 655.263 46.1275 642.602 32.7604 623.073C29.0991 617.631 26.1375 611.751 23.9454 605.569L23.7348 604.979L24.3585 604.929C31.8055 604.33 39.4558 603.066 42.8544 602.465L20.9396 595.04L20.8041 594.389C19.5049 588.285 22.0502 582.005 27.2326 578.527C32.429 574.883 39.3199 574.766 44.6367 578.233C47.0227 579.757 49.5183 581.266 51.9316 582.727C60.2248 587.743 68.8004 592.93 75.2298 600.028C84.9794 611.006 89.2528 625.798 86.8598 640.283L91.6427 657.759Z" fill="#F2F2F2"/>
<path d="M171.3 646.861L182.1 646.86L187.239 605.198L171.297 605.199L171.3 646.861Z" fill="#A0616A"/>
<path d="M170.922 658.128L204.137 658.127V657.707C204.136 650.567 198.348 644.78 191.209 644.779L185.141 640.177L173.821 644.78L170.922 644.78L170.922 658.128Z" fill="#2F2E41"/>
<path d="M84.7422 616.945L93.3812 623.426L122.494 593.185L109.742 583.619L84.7422 616.945Z" fill="#A0616A"/>
<path d="M77.6719 625.73L104.241 645.662L104.493 645.326C108.777 639.614 107.621 631.511 101.91 627.226L99.8187 619.903L88.0014 616.792L85.6821 615.052L77.6719 625.73Z" fill="#2F2E41"/>
<path d="M120.645 451.353C120.645 451.353 121.241 467.617 121.993 480.66C122.117 482.799 117.105 485.123 117.235 487.45C117.321 488.994 118.263 490.495 118.351 492.105C118.443 493.804 117.142 495.308 117.235 497.065C117.326 498.781 118.809 500.75 118.899 502.507C119.862 521.416 123.353 544.054 119.857 550.382C118.134 553.5 96.1719 596.706 96.1719 596.706C96.1719 596.706 108.409 615.061 111.905 608.943C116.522 600.862 152.111 563.055 152.111 555.835C152.111 548.625 160.344 494.582 160.344 494.582L166.085 526.564L168.718 532.901L167.891 536.621L169.592 541.641L169.684 546.609L171.34 555.835C171.34 555.835 166.358 627.717 169.164 629.719C171.978 631.729 185.604 635.339 187.213 631.729C188.812 628.119 199.223 556.71 199.223 556.71C199.223 556.71 200.901 523.985 202.72 493.568C202.824 491.803 204.066 489.67 204.162 487.931C204.275 485.912 203.489 483.29 203.594 481.332C203.707 479.085 204.704 477.503 204.8 475.353C205.543 458.738 201.372 438.504 200.044 436.511C196.032 430.498 192.422 425.691 192.422 425.691C192.422 425.691 138.386 407.937 123.947 425.977L120.645 451.353Z" fill="#2F2E41"/>
<path d="M174.535 284.104L153.114 279.82L143.118 293.386C124.465 311.727 124.184 327.914 127.514 353.86V390.275L125.104 414.687C125.104 414.687 116.573 432.533 125.372 436.687C134.172 440.842 191.971 440.488 197.489 438.829C203.008 437.171 198.224 435.135 196.775 427.405C194.053 412.886 195.874 419.889 196.061 415.267C198.747 348.953 192.491 321.729 191.856 314.573L180.962 294.814L174.535 284.104Z" fill="#3F3D56"/>
<path d="M287.44 337.571C285.207 341.801 279.968 343.42 275.738 341.188C275.287 340.95 274.858 340.672 274.456 340.359L228.195 369.732L228.329 353.74L273.267 327.661C276.468 324.072 281.972 323.758 285.561 326.959C288.564 329.637 289.341 334.024 287.44 337.571Z" fill="#A0616A"/>
<path d="M157.625 302.624L152.359 302.066C147.492 301.561 142.718 303.646 139.779 307.557C138.654 309.041 137.845 310.74 137.404 312.549L137.401 312.563C136.08 318.009 138.152 323.715 142.659 327.044L160.849 340.456C173.615 357.704 197.606 369.148 225.748 378.445L269.49 351.279L254.018 332.54L224.015 348.62L179.417 314.096L179.391 314.075L162.417 303.139L157.625 302.624Z" fill="#3F3D56"/>
<path d="M168.5 284C184.792 284 198 269.897 198 252.5C198 235.103 184.792 221 168.5 221C152.208 221 139 235.103 139 252.5C139 269.897 152.208 284 168.5 284Z" fill="#A0616A"/>
<path d="M167.876 273.59C167.675 273.597 167.473 273.602 167.271 273.607C167.185 273.831 167.092 274.053 166.984 274.271L167.876 273.59Z" fill="#2F2E41"/>
<path d="M174.734 249.298C174.774 249.544 174.833 249.787 174.914 250.023C174.88 249.775 174.82 249.532 174.734 249.298Z" fill="#2F2E41"/>
<path d="M198.01 222.186C196.811 226.218 195.742 221.104 191.798 222.023C187.055 223.13 181.535 222.75 177.651 219.6C171.863 215 164.363 213.762 157.573 216.285C150.926 218.832 139.791 220.629 138.059 228.032C137.457 230.606 137.218 233.398 135.759 235.531C134.483 237.396 132.47 238.459 130.786 239.895C125.1 244.741 129.446 258.509 132.137 265.784C134.828 273.059 141 278.359 147.787 281.073C154.354 283.7 161.481 284.163 168.485 283.957C169.704 280.534 169.178 276.58 168.172 273.031C167.084 269.189 165.472 265.482 165.018 261.494C164.563 257.505 165.561 252.975 168.648 250.747C171.486 248.698 176.103 249.946 177.182 253.258C176.553 249.118 180.424 245.111 184.416 244.407C188.702 243.65 192.988 245.326 197.261 246.161C201.535 246.995 200.018 227.504 198.01 222.186Z" fill="#2F2E41"/>
<path d="M350.459 285.011C352.967 254.712 330.438 228.116 300.138 225.609C269.839 223.101 243.243 245.631 240.736 275.93C238.228 306.23 260.758 332.825 291.057 335.332C321.357 337.84 347.952 315.311 350.459 285.011Z" fill="#1AA47D"/>
<path d="M309.847 257.742L295.5 272.091L281.152 257.742C278.83 255.419 275.064 255.419 272.742 257.742C270.419 260.065 270.419 263.831 272.742 266.153L287.089 280.502L272.742 294.851C270.422 297.176 270.425 300.941 272.75 303.262C275.071 305.579 278.831 305.579 281.152 303.262L295.5 288.913L309.847 303.262C312.172 305.582 315.938 305.579 318.258 303.254C320.575 300.932 320.575 297.172 318.258 294.851L303.911 280.502L318.258 266.153C320.581 263.831 320.581 260.065 318.258 257.742C315.936 255.419 312.17 255.419 309.847 257.742Z" fill="white"/>
<path d="M261.216 242.744C262.723 247.283 260.265 252.185 255.725 253.692C255.241 253.852 254.744 253.97 254.239 254.043L243.409 307.76L231.961 296.592L244.254 246.11C243.88 241.316 247.464 237.126 252.258 236.753C256.27 236.44 259.973 238.917 261.216 242.744Z" fill="#A0616A"/>
<path d="M146.126 312.225L142.077 315.639C138.344 318.801 136.543 323.689 137.331 328.518C137.622 330.357 138.289 332.117 139.289 333.687L139.297 333.7C142.312 338.423 147.864 340.878 153.387 339.931L175.657 336.089C196.942 338.819 221.809 329.429 248 315.559L258.68 265.186L234.447 263.378L225.279 296.16L169.491 304.442L169.458 304.446L149.815 309.124L146.126 312.225Z" fill="#3F3D56"/>
<path d="M56.7769 90.7035C61.4474 90.7035 65.2335 86.8329 65.2335 82.0584C65.2335 77.2839 61.4474 73.4133 56.7769 73.4133C52.1065 73.4133 48.3203 77.2839 48.3203 82.0584C48.3203 86.8329 52.1065 90.7035 56.7769 90.7035Z" fill="#3F3D56"/>
<path d="M85.9879 90.7035C90.6583 90.7035 94.4445 86.8329 94.4445 82.0584C94.4445 77.2839 90.6583 73.4133 85.9879 73.4133C81.3174 73.4133 77.5312 77.2839 77.5312 82.0584C77.5312 86.8329 81.3174 90.7035 85.9879 90.7035Z" fill="#3F3D56"/>
<path d="M115.207 90.7035C119.877 90.7035 123.663 86.8329 123.663 82.0584C123.663 77.2839 119.877 73.4133 115.207 73.4133C110.536 73.4133 106.75 77.2839 106.75 82.0584C106.75 86.8329 110.536 90.7035 115.207 90.7035Z" fill="#3F3D56"/>
<path d="M148.519 88.8912C148.259 88.8912 148 88.7906 147.804 88.5905L142.098 82.7574C141.717 82.3688 141.717 81.7477 142.098 81.359L147.804 75.5265C148.191 75.132 148.825 75.1256 149.218 75.5109C149.613 75.8971 149.62 76.5304 149.234 76.9249L144.212 82.0582L149.234 87.192C149.62 87.5865 149.613 88.2198 149.218 88.6061C149.024 88.7965 148.771 88.8912 148.519 88.8912Z" fill="#3F3D56"/>
<path d="M158.102 88.8912C157.849 88.8912 157.597 88.7965 157.402 88.6061C157.007 88.2198 157.001 87.587 157.387 87.192L162.408 82.0582L157.387 76.9249C157.001 76.5304 157.007 75.8971 157.402 75.5109C157.796 75.1241 158.43 75.1315 158.816 75.5265L164.522 81.359C164.902 81.7477 164.902 82.3688 164.522 82.7574L158.816 88.5905C158.621 88.7907 158.361 88.8912 158.102 88.8912Z" fill="#3F3D56"/>
<path d="M456.612 74.4142H446.003C444.792 74.4142 443.812 75.3942 443.812 76.6042V87.2242C443.812 88.4342 444.792 89.4142 446.003 89.4142H456.612C457.823 89.4142 458.812 88.4342 458.812 87.2242V76.6042C458.812 75.3942 457.823 74.4142 456.612 74.4142Z" fill="#3F3D56"/>
<path d="M430.612 74.4142H420.003C418.792 74.4142 417.812 75.3942 417.812 76.6042V87.2242C417.812 88.4342 418.792 89.4142 420.003 89.4142H430.612C431.823 89.4142 432.812 88.4342 432.812 87.2242V76.6042C432.812 75.3942 431.823 74.4142 430.612 74.4142Z" fill="#3F3D56"/>
<path d="M481.112 74.9142H470.503C469.292 74.9142 468.312 75.8942 468.312 77.1042V87.7242C468.312 88.9342 469.292 89.9142 470.503 89.9142H481.112C482.323 89.9142 483.312 88.9342 483.312 87.7242V77.1042C483.312 75.8942 482.323 74.9142 481.112 74.9142Z" fill="#3F3D56"/>
<path d="M321.191 78.9542H236.381C234.901 78.9542 233.711 80.1542 233.711 81.6243C233.711 83.0943 234.901 84.2942 236.381 84.2942H321.191C322.661 84.2942 323.861 83.0942 323.861 81.6243C323.861 80.1543 322.661 78.9542 321.191 78.9542Z" fill="#3F3D56"/>
</g>
<defs>
<clipPath id="clip0_3469_14534">
<rect width="586.479" height="659.298" fill="white"/>
</clipPath>
</defs>
</svg>
