<svg width="15" height="15" viewBox="0 0 15 15" fill="none" xmlns="http://www.w3.org/2000/svg">
<path fill-rule="evenodd" clip-rule="evenodd" d="M0.87868 0.87868C0 1.75736 0 3.17157 0 6V9C0 11.8284 0 13.2426 0.87868 14.1213C1.75736 15 3.17157 15 6 15H11.6667C11.9762 15 12.131 15 12.2615 14.9886C13.7118 14.8617 14.8617 13.7118 14.9886 12.2615C15 12.131 15 11.9762 15 11.6667H10.75C9.36929 11.6667 8.25 10.5474 8.25 9.16667C8.25 7.78595 9.36929 6.66667 10.75 6.66667H15V6C15 3.17157 15 1.75736 14.1213 0.87868C13.2426 0 11.8284 0 9 0H6C3.17157 0 1.75736 0 0.87868 0.87868ZM4.25 3.16656C3.69772 3.16656 3.25 3.61428 3.25 4.16656C3.25 4.71885 3.69772 5.16656 4.25 5.16656H6.8C7.35228 5.16656 7.8 4.71885 7.8 4.16656C7.8 3.61428 7.35228 3.16656 6.8 3.16656H4.25Z" fill="white" fill-opacity="0.65"/>
</svg>
