<svg width="13" height="15" viewBox="0 0 13 15" fill="none" xmlns="http://www.w3.org/2000/svg">
<path fill-rule="evenodd" clip-rule="evenodd" d="M9.47481 0.847979L6.71222 0.517716C3.58215 0.143523 2.01712 -0.043574 1.00856 0.851595C0 1.74676 0 3.32294 0 6.4753V6.48595H4.9259L3.02533 4.67869L4.40352 3.22934L8.1178 6.76127L8.87989 7.48595L8.1178 8.21062L4.40352 11.7425L3.02533 10.2932L4.9259 8.48595H0V8.49652C0 11.6489 0 13.2251 1.00856 14.1202C2.01712 15.0154 3.58215 14.8283 6.71222 14.4541L9.47481 14.1238C11.1527 13.9233 11.9916 13.823 12.4958 13.2549C13 12.6868 13 11.8419 13 10.1521V4.81969C13 3.1299 13 2.285 12.4958 1.71693C11.9916 1.14886 11.1527 1.04856 9.47481 0.847979Z" fill="#50637E"/>
</svg>
