<svg width="14" height="17" viewBox="0 0 14 17" fill="none" xmlns="http://www.w3.org/2000/svg">
<path fill-rule="evenodd" clip-rule="evenodd" d="M0.274461 5.65928C0 6.2542 0 6.93102 0 8.28465V12.5122C0 14.392 0 15.332 0.585786 15.916C1.11733 16.4459 1.94285 16.495 3.5 16.4995V11.5152C3.5 10.4094 4.3983 9.51823 5.5 9.51823H8.5C9.6017 9.51823 10.5 10.4094 10.5 11.5152V16.4995C12.0572 16.495 12.8827 16.4459 13.4142 15.916C14 15.332 14 14.392 14 12.5122V8.28465C14 6.93102 14 6.2542 13.7255 5.65928C13.4511 5.06435 12.9356 4.62388 11.9047 3.74295L10.9047 2.88841C9.04143 1.29614 8.10977 0.5 7 0.5C5.89023 0.5 4.95857 1.29614 3.09525 2.88841L2.09525 3.74295C1.06437 4.62388 0.548923 5.06435 0.274461 5.65928ZM8.5 16.5V11.5182H5.5V16.5H8.5Z" fill="white" fill-opacity="0.65"/>
</svg>
