<svg width="14" height="10" viewBox="0 0 14 10" fill="none" xmlns="http://www.w3.org/2000/svg">
<path fill-rule="evenodd" clip-rule="evenodd" d="M2.9327 1.49099C4.0559 0.68177 5.4556 0 7 0C8.54441 0 9.9441 0.68177 11.0673 1.49099C12.1946 2.30314 13.087 3.27496 13.6272 3.92789L13.6317 3.93342C13.873 4.23362 14 4.61404 14 5.00006C14 5.38607 13.873 5.7665 13.6317 6.0667L13.6272 6.07223C13.087 6.72515 12.1946 7.69698 11.0673 8.5091C9.9441 9.3183 8.54441 10.0001 7 10.0001C5.4556 10.0001 4.0559 9.3183 2.9327 8.5091C1.80544 7.69698 0.913028 6.72515 0.37279 6.07223L0.36828 6.0667C0.127025 5.7665 0 5.38607 0 5.00006C0 4.61404 0.127025 4.23362 0.36828 3.93342L0.37279 3.92789C0.913028 3.27496 1.80544 2.30314 2.9327 1.49099ZM7 7.25C8.24264 7.25 9.25 6.24264 9.25 5C9.25 3.75736 8.24264 2.75 7 2.75C5.75736 2.75 4.75 3.75736 4.75 5C4.75 6.24264 5.75736 7.25 7 7.25Z" fill="white"/>
</svg>
