<svg width="18" height="18" viewBox="0 0 18 18" fill="none" xmlns="http://www.w3.org/2000/svg">
<path fill-rule="evenodd" clip-rule="evenodd" d="M0 3.67126C0 2.46937 0.911562 1.60718 1.90981 1.60718H12.679C13.6772 1.60718 14.5887 2.46937 14.5887 3.67126V11.6309C14.5887 12.8328 13.6772 13.695 12.679 13.695H1.90981C0.911562 13.695 0 12.8328 0 11.6309V3.67126ZM5.32767 7.65114C5.32767 6.40511 6.20816 5.39503 7.29429 5.39503C8.38044 5.39503 9.26092 6.40511 9.26092 7.65114C9.26092 8.89714 8.38044 9.90724 7.29429 9.90724C6.20816 9.90724 5.32767 8.89714 5.32767 7.65114ZM1.73107 7.50705C1.73107 6.8961 2.1628 6.40082 2.69536 6.40082C3.22776 6.40082 3.65971 6.89592 3.65971 7.50705C3.65971 8.11817 3.22776 8.61327 2.69536 8.61327C2.1628 8.61327 1.73107 8.11799 1.73107 7.50705ZM11.8932 6.40082C11.3606 6.40082 10.9289 6.8961 10.9289 7.50705C10.9289 8.11799 11.3606 8.61327 11.8932 8.61327C12.4256 8.61327 12.8575 8.11817 12.8575 7.50705C12.8575 6.89592 12.4256 6.40082 11.8932 6.40082ZM17.956 7.65109C17.956 7.04013 17.5243 6.54487 16.9917 6.54487C16.4592 6.54487 16.0275 7.04013 16.0275 7.65109V15.026C16.0275 15.1238 15.9936 15.2174 15.9333 15.2866C15.873 15.3558 15.7913 15.3947 15.706 15.3947H4.13459C3.60203 15.3947 3.1703 15.8899 3.1703 16.501C3.1703 17.1119 3.60203 17.6072 4.13459 17.6072H15.706C16.3027 17.6072 16.875 17.3352 17.297 16.8511C17.7189 16.367 17.956 15.7105 17.956 15.026V7.65109Z" fill="#B2BAC5"/>
</svg>
