<svg width="18" height="18" viewBox="0 0 18 18" fill="none" xmlns="http://www.w3.org/2000/svg">
<path fill-rule="evenodd" clip-rule="evenodd" d="M0 3.40642C0 2.35874 0.911562 1.60718 1.90981 1.60718H12.679C13.6772 1.60718 14.5887 2.35874 14.5887 3.40642V10.3448C14.5887 11.3925 13.6772 12.144 12.679 12.144H1.90981C0.911562 12.144 0 11.3925 0 10.3448V3.40642ZM5.32767 6.87564C5.32767 5.78949 6.20816 4.90901 7.29429 4.90901C8.38044 4.90901 9.26092 5.78949 9.26092 6.87564C9.26092 7.96177 8.38044 8.84226 7.29429 8.84226C6.20816 8.84226 5.32767 7.96177 5.32767 6.87564ZM1.73107 6.75003C1.73107 6.21748 2.1628 5.78575 2.69536 5.78575C3.22776 5.78575 3.65971 6.21732 3.65971 6.75003C3.65971 7.28274 3.22776 7.71432 2.69536 7.71432C2.1628 7.71432 1.73107 7.28259 1.73107 6.75003ZM11.8932 5.78575C11.3606 5.78575 10.9289 6.21748 10.9289 6.75003C10.9289 7.28259 11.3606 7.71432 11.8932 7.71432C12.4256 7.71432 12.8575 7.28274 12.8575 6.75003C12.8575 6.21732 12.4256 5.78575 11.8932 5.78575ZM17.956 6.8756C17.956 6.34303 17.5243 5.91131 16.9917 5.91131C16.4592 5.91131 16.0275 6.34303 16.0275 6.8756V13.3042C16.0275 13.3895 15.9936 13.4711 15.9333 13.5314C15.873 13.5917 15.7913 13.6256 15.706 13.6256H4.13459C3.60203 13.6256 3.1703 14.0573 3.1703 14.5899C3.1703 15.1225 3.60203 15.5542 4.13459 15.5542H15.706C16.3027 15.5542 16.875 15.3171 17.297 14.8952C17.7189 14.4732 17.956 13.9009 17.956 13.3042V6.8756Z" fill="#B2BAC5"/>
</svg>
