<svg width="16" height="13" viewBox="0 0 16 13" fill="none" xmlns="http://www.w3.org/2000/svg">
<path d="M1.79688 2.5C2.07302 2.5 2.29688 2.27614 2.29688 2C2.29688 1.72386 2.07302 1.5 1.79688 1.5C1.52073 1.5 1.29688 1.72386 1.29688 2C1.29688 2.27614 1.52073 2.5 1.79688 2.5Z" stroke="#334155" stroke-width="1.8" stroke-linecap="round" stroke-linejoin="round"/>
<path d="M5.29688 2H14.2969" stroke="#334155" stroke-width="1.8" stroke-linecap="round" stroke-linejoin="round"/>
<path d="M1.79688 7C2.07302 7 2.29688 6.77614 2.29688 6.5C2.29688 6.22386 2.07302 6 1.79688 6C1.52073 6 1.29688 6.22386 1.29688 6.5C1.29688 6.77614 1.52073 7 1.79688 7Z" stroke="#334155" stroke-width="1.8" stroke-linecap="round" stroke-linejoin="round"/>
<path d="M5.29688 6.5H14.2969" stroke="#334155" stroke-width="1.8" stroke-linecap="round" stroke-linejoin="round"/>
<path d="M1.79688 11.5C2.07302 11.5 2.29688 11.2761 2.29688 11C2.29688 10.7239 2.07302 10.5 1.79688 10.5C1.52073 10.5 1.29688 10.7239 1.29688 11C1.29688 11.2761 1.52073 11.5 1.79688 11.5Z" stroke="#334155" stroke-width="1.8" stroke-linecap="round" stroke-linejoin="round"/>
<path d="M5.29688 11H14.2969" stroke="#334155" stroke-width="1.8" stroke-linecap="round" stroke-linejoin="round"/>
</svg>
