<svg width="14" height="15" viewBox="0 0 14 15" fill="none" xmlns="http://www.w3.org/2000/svg">
<g clip-path="url(#clip0_690_32923)">
<path d="M1 3.5C1.27614 3.5 1.5 3.27614 1.5 3C1.5 2.72386 1.27614 2.5 1 2.5C0.723858 2.5 0.5 2.72386 0.5 3C0.5 3.27614 0.723858 3.5 1 3.5Z" stroke="#334155" stroke-width="1.3" stroke-linecap="round" stroke-linejoin="round"/>
<path d="M4.5 3H13.5" stroke="#334155" stroke-width="1.3" stroke-linecap="round" stroke-linejoin="round"/>
<path d="M1 8C1.27614 8 1.5 7.77614 1.5 7.5C1.5 7.22386 1.27614 7 1 7C0.723858 7 0.5 7.22386 0.5 7.5C0.5 7.77614 0.723858 8 1 8Z" stroke="#334155" stroke-width="1.3" stroke-linecap="round" stroke-linejoin="round"/>
<path d="M4.5 7.5H13.5" stroke="#334155" stroke-width="1.3" stroke-linecap="round" stroke-linejoin="round"/>
<path d="M1 12.5C1.27614 12.5 1.5 12.2761 1.5 12C1.5 11.7239 1.27614 11.5 1 11.5C0.723858 11.5 0.5 11.7239 0.5 12C0.5 12.2761 0.723858 12.5 1 12.5Z" stroke="#334155" stroke-width="1.3" stroke-linecap="round" stroke-linejoin="round"/>
<path d="M4.5 12H13.5" stroke="#334155" stroke-width="1.3" stroke-linecap="round" stroke-linejoin="round"/>
</g>
<defs>
<clipPath id="clip0_690_32923">
<rect width="14" height="14" fill="white" transform="translate(0 0.5)"/>
</clipPath>
</defs>
</svg>
