<svg width="16" height="17" viewBox="0 0 16 17" fill="none" xmlns="http://www.w3.org/2000/svg">
<path fill-rule="evenodd" clip-rule="evenodd" d="M9.42857 1.42364C8.95519 1.42364 8.57143 1.8369 8.57143 2.34669C8.57143 2.85646 8.95519 3.26973 9.42857 3.26973H15.1429C15.6162 3.26973 16 2.85646 16 2.34669C16 1.8369 15.6162 1.42364 15.1429 1.42364H9.42857ZM0 1.73072C0 1.05101 0.511674 0.5 1.14286 0.5H5.71429C6.34546 0.5 6.85714 1.05101 6.85714 1.73072V6.65422C6.85714 7.33392 6.34546 7.88494 5.71429 7.88494H1.14286C0.511674 7.88494 0 7.33392 0 6.65422V1.73072ZM0 10.3458C0 9.66608 0.511674 9.11506 1.14286 9.11506H5.71429C6.34546 9.11506 6.85714 9.66608 6.85714 10.3458V15.2693C6.85714 15.949 6.34546 16.5 5.71429 16.5H1.14286C0.511674 16.5 0 15.949 0 15.2693V10.3458ZM8.57143 6.03885C8.57143 5.52908 8.95519 5.11581 9.42857 5.11581H15.1429C15.6162 5.11581 16 5.52908 16 6.03885C16 6.54863 15.6162 6.9619 15.1429 6.9619H9.42857C8.95519 6.9619 8.57143 6.54863 8.57143 6.03885ZM8.57143 10.9617C8.57143 10.452 8.95519 10.0387 9.42857 10.0387H15.1429C15.6162 10.0387 16 10.452 16 10.9617C16 11.4715 15.6162 11.8848 15.1429 11.8848H9.42857C8.95519 11.8848 8.57143 11.4715 8.57143 10.9617ZM9.42857 13.7309C8.95519 13.7309 8.57143 14.1441 8.57143 14.6539C8.57143 15.1637 8.95519 15.577 9.42857 15.577H15.1429C15.6162 15.577 16 15.1637 16 14.6539C16 14.1441 15.6162 13.7309 15.1429 13.7309H9.42857Z" fill="#B8BCC3"/>
</svg>
