<svg width="17" height="16" viewBox="0 0 17 16" fill="none" xmlns="http://www.w3.org/2000/svg">
<path d="M15.4474 4.33593C15.4266 4.22303 15.3822 4.11576 15.317 4.02108C15.2519 3.92642 15.1675 3.84648 15.0692 3.78644L12.9082 5.94129C12.8074 6.04556 12.6866 6.12851 12.5529 6.18517C12.4193 6.24182 12.2754 6.27101 12.1302 6.27101C11.985 6.27101 11.8413 6.24182 11.7076 6.18517C11.5739 6.12851 11.4531 6.04556 11.3523 5.94129L10.5311 5.20864C10.3331 5.00724 10.2222 4.73646 10.2222 4.45445C10.2222 4.17243 10.3331 3.90165 10.5311 3.70025L12.6921 1.5454C12.645 1.43501 12.5741 1.33629 12.4845 1.25623C12.3948 1.17617 12.2887 1.11673 12.1734 1.08211C11.4194 0.932178 10.6383 0.996358 9.91912 1.26735C9.19989 1.53833 8.57141 2.00524 8.10524 2.61491C7.63906 3.22458 7.35393 3.95252 7.28231 4.71584C7.2152 5.43088 7.33799 6.15006 7.63709 6.80152L1.83821 12.5837C1.41014 13.0106 1.41724 13.7047 1.85395 14.1228L2.45989 14.7029C2.88253 15.1074 3.55153 15.1025 3.96807 14.6916L9.83353 8.90632C10.4679 9.16756 11.159 9.26693 11.8438 9.19373C12.6009 9.11279 13.3207 8.82403 13.9231 8.35956C14.5256 7.89507 14.987 7.27308 15.2561 6.56274C15.5252 5.8524 15.5915 5.08156 15.4474 4.33593Z" stroke="#A76F43" stroke-width="1.5" stroke-linecap="round" stroke-linejoin="round"/>
</svg>
