<svg width="17" height="16" viewBox="0 0 17 16" fill="none" xmlns="http://www.w3.org/2000/svg">
<path d="M15.2304 4.33605C15.2095 4.22315 15.1651 4.11588 15.1 4.02121C15.0348 3.92654 14.9504 3.8466 14.8522 3.78657L12.6912 5.94141C12.5903 6.04569 12.4695 6.12864 12.3359 6.18529C12.2022 6.24194 12.0584 6.27114 11.9132 6.27114C11.7679 6.27114 11.6242 6.24194 11.4905 6.18529C11.3569 6.12864 11.236 6.04569 11.1352 5.94141L10.314 5.20876C10.116 5.00736 10.0051 4.73658 10.0051 4.45457C10.0051 4.17255 10.116 3.90177 10.314 3.70037L12.475 1.54553C12.4279 1.43513 12.3571 1.33641 12.2675 1.25635C12.1778 1.17629 12.0717 1.11685 11.9564 1.08223C11.2024 0.9323 10.4213 0.99648 9.70208 1.26747C8.98284 1.53846 8.35437 2.00536 7.88819 2.61503C7.42202 3.2247 7.13689 3.95264 7.06526 4.71596C6.99816 5.431 7.12094 6.15018 7.42005 6.80164L1.62117 12.5838C1.1931 13.0107 1.2002 13.7049 1.63691 14.1229L2.24285 14.703C2.66548 15.1076 3.33449 15.1026 3.75103 14.6917L9.61649 8.90644C10.2509 9.16768 10.9419 9.26705 11.6267 9.19385C12.3838 9.11292 13.1037 8.82416 13.7061 8.35968C14.3086 7.89519 14.77 7.2732 15.039 6.56286C15.3082 5.85252 15.3744 5.08168 15.2304 4.33605Z" stroke="#A86F43" stroke-width="1.8" stroke-linecap="round" stroke-linejoin="round"/>
</svg>
