<svg width="18" height="18" viewBox="0 0 16 16" fill="none" xmlns="http://www.w3.org/2000/svg">
<path fill-rule="evenodd" clip-rule="evenodd" d="M11.1255 3.47575C11.0118 3.75029 10.7439 3.9293 10.4467 3.9293H8.73246V6.62317C8.73246 7.02893 8.40352 7.35787 7.99777 7.35787C7.59201 7.35787 7.26307 7.02893 7.26307 6.62317V3.9293H5.54879C5.25163 3.9293 4.98374 3.75029 4.87002 3.47575C4.7563 3.20121 4.81916 2.88522 5.02928 2.67509L7.47826 0.226112C7.76517 -0.0608037 8.23036 -0.0608037 8.51727 0.226112L10.9662 2.67509C11.1763 2.88522 11.2392 3.20121 11.1255 3.47575ZM1.63042 8.16167C1.50052 8.16167 1.37594 8.21328 1.28408 8.30513C1.19223 8.39699 1.14062 8.52157 1.14062 8.65147V12.2467C1.14062 12.6365 1.29543 13.0102 1.571 13.2858C1.84656 13.5613 2.2203 13.7161 2.61001 13.7161H13.3855C13.7752 13.7161 14.149 13.5613 14.4246 13.2858C14.7001 13.0102 14.8549 12.6365 14.8549 12.2467V8.65147C14.8549 8.52157 14.8033 8.39699 14.7115 8.30513C14.6196 8.21328 14.495 8.16167 14.3651 8.16167H11.4525C11.0627 8.16167 10.689 8.31649 10.4134 8.59204C10.1379 8.86761 9.98307 9.24136 9.98307 9.63106C9.98307 10.5854 9.02748 11.3277 7.99552 11.3207C6.99189 11.314 6.0647 10.5682 6.0647 9.63106C6.0647 9.24136 5.90988 8.86761 5.63433 8.59204C5.35876 8.31649 4.98501 8.16167 4.59531 8.16167H1.63042Z" fill="white"/>
</svg>
