<svg width="22" height="22" viewBox="0 0 22 22" fill="none" xmlns="http://www.w3.org/2000/svg">
<path d="M11.0391 21.3883C16.6448 21.3883 21.1891 16.844 21.1891 11.2383C21.1891 5.63259 16.6448 1.08828 11.0391 1.08828C5.43337 1.08828 0.889062 5.63259 0.889062 11.2383C0.889062 16.844 5.43337 21.3883 11.0391 21.3883Z" stroke="#243958" stroke-width="0.3"/>
<path d="M11.0365 12.1188L8.51603 9.17834C8.33007 8.96139 8.02856 8.96139 7.8426 9.17834C7.65663 9.3953 7.65663 9.74706 7.8426 9.96402L10.6997 13.2974C10.8857 13.5143 11.1872 13.5143 11.3732 13.2974L14.2303 9.96402C14.4163 9.74706 14.4163 9.3953 14.2303 9.17834C14.0444 8.96139 13.7428 8.96139 13.5569 9.17834L11.0365 12.1188Z" fill="#243958" stroke="#243958" stroke-width="0.5"/>
<mask id="mask0_1385_1371" style="mask-type:luminance" maskUnits="userSpaceOnUse" x="7" y="8" width="8" height="6">
<path d="M11.0365 12.1188L8.51603 9.17834C8.33007 8.96139 8.02856 8.96139 7.8426 9.17834C7.65663 9.3953 7.65663 9.74706 7.8426 9.96402L10.6997 13.2974C10.8857 13.5143 11.1872 13.5143 11.3732 13.2974L14.2303 9.96402C14.4163 9.74706 14.4163 9.3953 14.2303 9.17834C14.0444 8.96139 13.7428 8.96139 13.5569 9.17834L11.0365 12.1188Z" fill="white" stroke="white" stroke-width="0.5"/>
</mask>
<g mask="url(#mask0_1385_1371)">
</g>
</svg>
