<svg width="14" height="18" viewBox="0 0 14 18" fill="none" xmlns="http://www.w3.org/2000/svg">
<path fill-rule="evenodd" clip-rule="evenodd" d="M10.5408 0.883739L6.81123 0.374804C3.64013 -0.0579196 2.05459 -0.274281 1.02729 0.622349C0 1.51898 0 3.11922 0 6.31971V7.99793H5.71906L3.26453 5.33363L4.73547 3.97851L8.73547 8.32038L9.35968 8.99793L8.73547 9.67549L4.73547 14.0174L3.26453 12.6622L5.71906 9.99793H0V11.6752C0 14.8757 0 16.4759 1.02729 17.3726C2.05458 18.2692 3.64013 18.0528 6.81123 17.6201L10.5408 17.1112C12.1893 16.8862 13.0136 16.7738 13.5068 16.2087C14 15.6436 14 14.8117 14 13.1479V4.84701C14 3.18323 14 2.35134 13.5068 1.78625C13.0136 1.22117 12.1893 1.10869 10.5408 0.883739Z" fill="#B2BAC5"/>
</svg>
