<svg width="22" height="22" viewBox="0 0 22 22" fill="none" xmlns="http://www.w3.org/2000/svg">
<path d="M11.0391 21.3882C16.6448 21.3882 21.1891 16.8439 21.1891 11.2382C21.1891 5.63251 16.6448 1.0882 11.0391 1.0882C5.43337 1.0882 0.889062 5.63251 0.889062 11.2382C0.889062 16.8439 5.43337 21.3882 11.0391 21.3882Z" stroke="#243958" stroke-width="0.3"/>
<path d="M11.0365 11.8089L8.51603 9.16248C8.33007 8.96722 8.02856 8.96722 7.8426 9.16248C7.65663 9.35775 7.65663 9.67433 7.8426 9.86959L10.6997 12.8696C10.8857 13.0649 11.1872 13.0649 11.3732 12.8696L14.2303 9.86959C14.4163 9.67433 14.4163 9.35775 14.2303 9.16248C14.0444 8.96722 13.7428 8.96722 13.5569 9.16248L11.0365 11.8089Z" fill="#243958" stroke="#243958" stroke-width="0.5"/>
<mask id="mask0_3690_6823" style="mask-type:luminance" maskUnits="userSpaceOnUse" x="7" y="8" width="8" height="6">
<path d="M11.0365 11.8089L8.51603 9.16248C8.33007 8.96722 8.02856 8.96722 7.8426 9.16248C7.65663 9.35775 7.65663 9.67433 7.8426 9.86959L10.6997 12.8696C10.8857 13.0649 11.1872 13.0649 11.3732 12.8696L14.2303 9.86959C14.4163 9.67433 14.4163 9.35775 14.2303 9.16248C14.0444 8.96722 13.7428 8.96722 13.5569 9.16248L11.0365 11.8089Z" fill="white" stroke="white" stroke-width="0.5"/>
</mask>
<g mask="url(#mask0_3690_6823)">
</g>
</svg>
