<svg width="18" height="18" viewBox="0 0 18 18" fill="none" xmlns="http://www.w3.org/2000/svg">
<g clip-path="url(#clip0_1297_21679)">
<path fill-rule="evenodd" clip-rule="evenodd" d="M9.73069 2.93216C9.61649 2.76904 9.4299 2.67188 9.23076 2.67188C9.03163 2.67188 8.84504 2.76904 8.73084 2.93216L4.87632 8.43863L1.72923 5.29154C1.55471 5.11702 1.29223 5.06481 1.06421 5.15926C0.836178 5.25371 0.6875 5.47623 0.6875 5.72304V13.6561C0.6875 14.3034 0.944669 14.9243 1.40243 15.3821C1.8602 15.8399 2.48106 16.097 3.12843 16.097H15.3331C15.9804 16.097 16.6013 15.8399 17.0591 15.3821C17.5169 14.9243 17.774 14.3034 17.774 13.6561V5.72304C17.774 5.47623 17.6254 5.25371 17.3973 5.15926C17.1693 5.06481 16.9068 5.11702 16.7322 5.29154L13.5853 8.43863L9.73069 2.93216Z" fill="#7C0808" fill-opacity="0.73"/>
</g>
<defs>
<clipPath id="clip0_1297_21679">
<rect width="17.0865" height="17.0865" fill="white" transform="translate(0.6875 0.839844)"/>
</clipPath>
</defs>
</svg>
