<svg width="19" height="17" viewBox="0 0 19 17" fill="none" xmlns="http://www.w3.org/2000/svg">
<path fill-rule="evenodd" clip-rule="evenodd" d="M5.50408 1.10965C5.92604 0.732586 6.49834 0.520752 7.09508 0.520752H12.2379C12.8347 0.520752 13.407 0.732586 13.8289 1.10965C14.2508 1.48672 14.4879 1.99814 14.4879 2.53139V3.88243H16.7379C17.803 3.88243 18.6665 4.65402 18.6665 5.60583V14.7973C18.6665 15.7491 17.803 16.5207 16.7379 16.5207H2.59508C1.52995 16.5207 0.666504 15.7491 0.666504 14.7973V5.60583C0.666504 4.65402 1.52995 3.88243 2.59508 3.88243H4.84508V2.53139C4.84508 1.99814 5.08212 1.48672 5.50408 1.10965ZM12.5594 2.53139V3.88243H6.77365V2.53139C6.77365 2.45521 6.80751 2.38215 6.86779 2.32828C6.92807 2.27442 7.00983 2.24416 7.09508 2.24416H12.2379C12.3232 2.24416 12.4049 2.27442 12.4652 2.32828C12.5255 2.38215 12.5594 2.45521 12.5594 2.53139ZM10.6308 5.8932C10.6308 5.4173 10.1991 5.0315 9.6665 5.0315C9.13395 5.0315 8.70222 5.4173 8.70222 5.8932V6.47975C7.49776 6.59395 6.55941 7.50472 6.55941 8.61135C6.55941 9.61873 7.34436 10.4902 8.44565 10.7055L10.3396 11.0757C10.6344 11.1333 10.8451 11.3671 10.8451 11.6373C10.8451 11.955 10.5568 12.2123 10.2022 12.2123H9.13084C8.85244 12.2123 8.61303 12.0537 8.52431 11.8294C8.34685 11.3807 7.79592 11.1455 7.29381 11.3041C6.79169 11.4627 6.52851 11.9551 6.70598 12.4037C7.01258 13.1789 7.77202 13.7645 8.70222 13.9039V14.5102C8.70222 14.9861 9.13395 15.3719 9.6665 15.3719C10.1991 15.3719 10.6308 14.9861 10.6308 14.5102V13.9039C11.8473 13.7216 12.7737 12.7757 12.7737 11.6373C12.7737 10.5578 11.9326 9.62295 10.7518 9.39213L8.85778 9.02189C8.64188 8.97969 8.48798 8.80884 8.48798 8.61135C8.48798 8.37924 8.69854 8.19108 8.95828 8.19108H10.2022C10.3925 8.19108 10.5625 8.26387 10.6816 8.38278C10.7376 8.43863 10.7809 8.50354 10.8088 8.57397C10.9862 9.02268 11.5372 9.25786 12.0393 9.09926C12.5414 8.94066 12.8046 8.44836 12.6271 7.99966C12.5139 7.71334 12.3395 7.45384 12.1187 7.23341C11.7392 6.85452 11.2187 6.58783 10.6308 6.49952V5.8932Z" fill="#2D612F" fill-opacity="0.77"/>
</svg>
