<svg width="19" height="19" viewBox="0 0 19 19" fill="none" xmlns="http://www.w3.org/2000/svg">
<path fill-rule="evenodd" clip-rule="evenodd" d="M18.2425 7.37259C18.2425 11.2437 15.1043 14.3819 11.2332 14.3819C7.36208 14.3819 4.2239 11.2437 4.2239 7.37259C4.2239 3.50145 7.36208 0.363281 11.2332 0.363281C15.1043 0.363281 18.2425 3.50145 18.2425 7.37259ZM11.2331 2.07942C11.7919 2.07942 12.2448 2.53238 12.2448 3.09112V3.51869C12.7265 3.63327 13.1516 3.89375 13.4698 4.24922C13.6746 4.47804 13.8365 4.74753 13.9417 5.045C14.1278 5.5718 13.8517 6.14982 13.325 6.33601C12.7981 6.52222 12.2201 6.24609 12.0339 5.71929C12.0183 5.67528 11.994 5.63426 11.9621 5.59866C11.8942 5.5228 11.7987 5.47743 11.6914 5.47743H11.2398L11.2331 5.47746L11.2264 5.47743H10.6273C10.5084 5.47743 10.412 5.57384 10.412 5.69276C10.412 5.79396 10.4825 5.8815 10.5813 5.90313L12.2013 6.25749C13.2972 6.49721 14.0777 7.46803 14.0777 8.5891C14.0777 9.71615 13.2961 10.6616 12.2448 10.9114V11.3389C12.2448 11.8977 11.7919 12.3506 11.2331 12.3506C10.6744 12.3506 10.2214 11.8977 10.2214 11.3389V10.9114C9.42962 10.7234 8.79184 10.1409 8.52466 9.38496C8.33845 8.85815 8.61458 8.28014 9.14138 8.09395C9.66819 7.90774 10.2462 8.18386 10.4324 8.71067C10.4827 8.85299 10.6185 8.95253 10.7749 8.95253H11.6914C11.8913 8.95253 12.0543 8.79003 12.0543 8.5891C12.0543 8.41819 11.9352 8.27052 11.7689 8.23416L10.1489 7.87979C9.12117 7.65496 8.3886 6.74484 8.3886 5.69276C8.3886 4.59496 9.17878 3.6817 10.2214 3.49073V3.09112C10.2214 2.53238 10.6744 2.07942 11.2331 2.07942ZM11.2332 16.0681C11.6737 16.0681 12.1064 16.0354 12.5293 15.9722C11.2435 17.5043 9.31438 18.4782 7.15775 18.4782C3.28661 18.4782 0.148438 15.3401 0.148438 11.4689C0.148438 9.32512 1.11086 7.40611 2.62723 6.12039C2.56825 6.52929 2.53773 6.94739 2.53773 7.37263C2.53773 12.175 6.43082 16.0681 11.2332 16.0681Z" fill="#7C0808" fill-opacity="0.73"/>
</svg>
