<svg width="15" height="15" viewBox="0 0 15 15" fill="none" xmlns="http://www.w3.org/2000/svg">
<path fill-rule="evenodd" clip-rule="evenodd" d="M0.87868 0.87868C0 1.75736 0 3.17157 0 6V9C0 11.8284 0 13.2426 0.87868 14.1213C1.75736 15 3.17157 15 6 15H9C11.8284 15 13.2426 15 14.1213 14.1213C15 13.2426 15 11.8284 15 9V6C15 3.17157 15 1.75736 14.1213 0.87868C13.2426 0 11.8284 0 9 0H6C3.17157 0 1.75736 0 0.87868 0.87868ZM12.0821 5.80487C12.3884 5.34534 12.2642 4.72447 11.8047 4.41812C11.3452 4.11177 10.7243 4.23594 10.4179 4.69547L8.37348 7.76218C7.67872 6.44558 5.8196 6.34299 4.98769 7.59086L2.91795 10.6955C2.6116 11.155 2.73577 11.7759 3.1953 12.0822C3.65483 12.3886 4.2757 12.2644 4.58205 11.8049L6.62652 8.73816C7.32128 10.0548 9.1804 10.1573 10.0123 8.90948L12.0821 5.80487Z" fill="white" fill-opacity="0.65"/>
</svg>
