<svg width="12" height="12" viewBox="0 0 12 12" fill="none" xmlns="http://www.w3.org/2000/svg">
<path fill-rule="evenodd" clip-rule="evenodd" d="M6.64286 0.642857C6.64286 0.287817 6.35504 0 6 0C5.64496 0 5.35714 0.287817 5.35714 0.642857V3H3.85714C3.59713 3 3.36273 3.15663 3.26322 3.39684C3.16371 3.63707 3.21872 3.91357 3.40257 4.09743L5.54543 6.24028C5.60707 6.30192 5.6781 6.34842 5.75392 6.37979C5.82972 6.41123 5.91284 6.42857 6 6.42857C6.08716 6.42857 6.17028 6.41123 6.24608 6.37979C6.3219 6.34842 6.39293 6.30192 6.45457 6.24028L8.5974 4.09743C8.78126 3.91357 8.83629 3.63707 8.73677 3.39684C8.63726 3.15663 8.40287 3 8.14286 3H6.64286V0.642857ZM0.428571 7.1319C0.314907 7.1319 0.205899 7.17706 0.125526 7.25743C0.0451529 7.33781 0 7.44682 0 7.56047V10.7063C0 11.0474 0.135459 11.3744 0.376577 11.6155C0.617695 11.8566 0.944717 11.992 1.28571 11.992H10.7143C11.0553 11.992 11.3823 11.8566 11.6235 11.6155C11.8646 11.3744 12 11.0474 12 10.7063V7.56047C12 7.44682 11.9548 7.33781 11.8745 7.25743C11.7941 7.17706 11.6851 7.1319 11.5714 7.1319H9.02289C8.68183 7.1319 8.35483 7.26736 8.11371 7.50848C7.87259 7.7496 7.73714 8.07663 7.73714 8.41762C7.73714 9.25271 6.90099 9.90216 5.99804 9.89608C5.11986 9.89016 4.30857 9.23762 4.30857 8.41762C4.30857 8.07663 4.1731 7.7496 3.93199 7.50848C3.69087 7.26736 3.36384 7.1319 3.02285 7.1319H0.428571Z" fill="white"/>
</svg>
