<svg width="19" height="19" viewBox="0 0 19 19" fill="none" xmlns="http://www.w3.org/2000/svg">
<g clip-path="url(#clip0_1297_21621)">
<path fill-rule="evenodd" clip-rule="evenodd" d="M18.0814 13.2906C18.0814 17.1097 14.622 18.8255 9.77895 18.8255C4.9359 18.8255 1.47656 17.1097 1.47656 13.3183C1.47656 9.16707 3.55216 7.06364 7.70336 4.96037L6.2333 2.22373C6.14562 2.08659 6.0968 1.92821 6.09206 1.7655C6.08731 1.60279 6.12681 1.44184 6.20635 1.29981C6.28589 1.15778 6.40247 1.04 6.54369 0.959022C6.6849 0.878047 6.84545 0.836913 7.0082 0.840006H12.8752C13.0278 0.843885 13.1769 0.886529 13.3084 0.963923C13.44 1.04132 13.5497 1.15092 13.6272 1.2824C13.7046 1.41389 13.7474 1.56294 13.7515 1.71551C13.7555 1.86809 13.7206 2.01918 13.6502 2.15455L11.8546 4.96037C16.0058 7.03597 18.0814 9.13938 18.0814 13.2906ZM10.5819 7.1186C10.5819 6.67515 10.2224 6.31566 9.77894 6.31566C9.33548 6.31566 8.976 6.67515 8.976 7.1186V7.92353C7.78507 7.97344 6.83488 8.95472 6.83488 10.1579C6.83488 11.2089 7.56667 12.1181 8.59336 12.3427L10.4858 12.7566C10.8542 12.8372 11.1172 13.1639 11.1172 13.5415C11.1172 13.9853 10.7573 14.345 10.3143 14.345H9.24369C8.89534 14.345 8.59684 14.1227 8.48624 13.8098C8.33847 13.3917 7.87972 13.1725 7.46162 13.3203C7.04351 13.4681 6.82438 13.9268 6.97216 14.345C7.27399 15.1989 8.04418 15.8332 8.976 15.9362V16.7538C8.976 17.1973 9.33548 17.5567 9.77894 17.5567C10.2224 17.5567 10.5819 17.1973 10.5819 16.7538V15.9362C11.7866 15.803 12.7231 14.781 12.7231 13.5415C12.7231 12.4098 11.9351 11.4298 10.829 11.1879L8.93653 10.7739C8.64708 10.7105 8.44075 10.4542 8.44075 10.1579C8.44075 9.8097 8.72304 9.52742 9.07127 9.52742H10.3143C10.552 9.52742 10.7648 9.62972 10.9129 9.79526C10.9825 9.87304 11.0368 9.96375 11.0717 10.0626C11.2195 10.4807 11.6782 10.6999 12.0963 10.5521C12.5144 10.4043 12.7336 9.94558 12.5858 9.52748C12.4798 9.22744 12.3164 8.95541 12.1095 8.72427C11.7254 8.29506 11.1872 8.00333 10.5819 7.93627V7.1186Z" fill="#2D612F" fill-opacity="0.77"/>
</g>
<defs>
<clipPath id="clip0_1297_21621">
<rect width="17.9858" height="17.9858" fill="white" transform="translate(0.789062 0.839844)"/>
</clipPath>
</defs>
</svg>
