<svg width="15" height="15" viewBox="0 0 15 15" fill="none" xmlns="http://www.w3.org/2000/svg">
<path fill-rule="evenodd" clip-rule="evenodd" d="M4.03131 0.628521C4.38295 0.27689 4.85986 0.0793457 5.35714 0.0793457H9.64286C10.1401 0.0793457 10.6171 0.27689 10.9686 0.628521C11.3203 0.980151 11.5179 1.45707 11.5179 1.95435V3.21424H13.3929C14.2804 3.21424 15 3.93378 15 4.82138V13.3928C15 14.2804 14.2804 15 13.3929 15H1.60714C0.719542 15 0 14.2804 0 13.3928V4.82138C0 3.93378 0.719542 3.21424 1.60714 3.21424H3.48214V1.95435C3.48214 1.45707 3.67968 0.980151 4.03131 0.628521ZM9.91071 1.95435V3.21424H5.08929V1.95435C5.08929 1.8833 5.11751 1.81517 5.16774 1.76494C5.21797 1.71471 5.28611 1.68649 5.35714 1.68649H9.64286C9.71389 1.68649 9.78202 1.71471 9.83226 1.76494C9.88249 1.81517 9.91071 1.8833 9.91071 1.95435ZM8.30357 5.08937C8.30357 4.64557 7.9438 4.2858 7.5 4.2858C7.0562 4.2858 6.69643 4.64557 6.69643 5.08937V5.63635C5.69271 5.74285 4.91075 6.59218 4.91075 7.62415C4.91075 8.56357 5.56488 9.37626 6.48262 9.57702L8.06094 9.92227C8.30659 9.97601 8.48217 10.194 8.48217 10.446C8.48217 10.7422 8.24193 10.9822 7.94645 10.9822H7.05361C6.82161 10.9822 6.6221 10.8342 6.54817 10.6251C6.40029 10.2067 5.94118 9.98738 5.52275 10.1353C5.10432 10.2832 4.88501 10.7423 5.0329 11.1607C5.2884 11.8836 5.92126 12.4297 6.69643 12.5597V13.1251C6.69643 13.5688 7.0562 13.9286 7.5 13.9286C7.9438 13.9286 8.30357 13.5688 8.30357 13.1251V12.5597C9.31731 12.3896 10.0893 11.5075 10.0893 10.446C10.0893 9.43927 9.3884 8.56751 8.40438 8.35226L6.82606 8.007C6.64615 7.96765 6.5179 7.80831 6.5179 7.62415C6.5179 7.4077 6.69336 7.23223 6.90981 7.23223H7.94645C8.10504 7.23223 8.2467 7.30011 8.34595 7.411C8.39255 7.46308 8.42867 7.52361 8.45189 7.58929C8.59978 8.00773 9.05889 8.22705 9.47731 8.07915C9.89575 7.93125 10.1151 7.47215 9.96717 7.05373C9.8728 6.78672 9.72746 6.54472 9.54348 6.33917C9.22724 5.98584 8.79347 5.73713 8.30357 5.65479V5.08937Z" fill="#B2BAC5"/>
</svg>
