<svg width="17" height="17" viewBox="0 0 17 17" fill="none" xmlns="http://www.w3.org/2000/svg">
<g clip-path="url(#clip0_1297_21650)">
<path fill-rule="evenodd" clip-rule="evenodd" d="M12.6986 0.842101C11.7856 0.660028 10.8398 0.737965 9.96887 1.06704C9.09797 1.39611 8.33698 1.9631 7.77251 2.70345C7.20805 3.4438 6.8628 4.32776 6.77605 5.2547C6.70756 5.98683 6.8025 6.72251 7.05105 7.40947L1.11736 13.3432C0.430262 14.0302 0.441655 15.1477 1.14262 15.8207L1.79101 16.4431C2.46939 17.0944 3.54321 17.0864 4.21179 16.425L10.2273 10.4746C10.8913 10.6898 11.5955 10.7637 12.2942 10.6888C13.2108 10.5906 14.0822 10.24 14.8114 9.67614C15.5406 9.11227 16.0992 8.35719 16.425 7.49485C16.7505 6.63323 16.8307 5.69828 16.6569 4.79379C16.6198 4.59373 16.5411 4.40368 16.4259 4.23588C16.3103 4.06745 16.1606 3.92522 15.9864 3.81841C15.7585 3.67859 15.4645 3.71333 15.2754 3.90241L12.9629 6.21487L12.9555 6.22246C12.9016 6.27841 12.8369 6.32291 12.7654 6.35331C12.6938 6.38372 12.617 6.39937 12.5393 6.39937C12.4616 6.39937 12.3847 6.38372 12.3131 6.35331C12.2416 6.32291 12.1769 6.27841 12.123 6.22246C12.1131 6.2122 12.1029 6.20231 12.0922 6.19282L11.2301 5.42138C11.1309 5.31461 11.0756 5.17414 11.0756 5.02806C11.0756 4.87754 11.1343 4.73299 11.2392 4.6251L13.5493 2.31502C13.7161 2.14823 13.7649 1.89683 13.6724 1.67979C13.5888 1.48338 13.4631 1.30774 13.3041 1.1653C13.145 1.02287 12.9567 0.917112 12.7523 0.855523C12.7347 0.850193 12.7166 0.845714 12.6986 0.842101Z" fill="#7C0808" fill-opacity="0.73"/>
</g>
<defs>
<clipPath id="clip0_1297_21650">
<rect width="16.1872" height="16.1872" fill="white" transform="translate(0.585938 0.742188)"/>
</clipPath>
</defs>
</svg>
