<svg width="17" height="18" viewBox="0 0 17 18" fill="none" xmlns="http://www.w3.org/2000/svg">
<path fill-rule="evenodd" clip-rule="evenodd" d="M2.70553 0.440776C2.7995 0.249986 3.00131 0.128075 3.22317 0.128075H14.6516C14.8735 0.128075 15.0751 0.249986 15.1691 0.440776L16.8834 3.92147C16.9264 4.00863 16.9435 4.10345 16.9352 4.19638H16.9375V5.22203C16.9375 5.79002 16.6787 6.33475 16.2181 6.73637C15.7575 7.13801 15.1329 7.36364 14.4816 7.36364H14.1747C13.5232 7.36364 12.8986 7.13801 12.438 6.73637C12.256 6.57761 12.1055 6.39649 11.99 6.20041C11.8538 5.9938 11.5913 5.98913 11.4415 6.21053C11.3268 6.40273 11.1784 6.58035 10.9994 6.73637C10.5389 7.13801 9.91423 7.36364 9.2629 7.36364H8.64893C7.9976 7.36364 7.37293 7.13801 6.91237 6.73637C6.72101 6.5695 6.56448 6.37792 6.44688 6.17023C6.31106 6.00152 6.07582 6.00025 5.93109 6.18447C5.81444 6.38668 5.66072 6.57332 5.47374 6.73637C5.01318 7.13801 4.38852 7.36364 3.73719 7.36364H3.39337C2.74202 7.36364 2.11737 7.13801 1.65681 6.73637C1.19624 6.33475 0.9375 5.79002 0.9375 5.22203V4.19638H0.939486C0.931307 4.10345 0.948355 4.00863 0.99128 3.92147L2.70553 0.440776ZM2.03042 12.8935V8.68817C2.46741 8.82793 2.92861 8.89976 3.39337 8.89976H3.73719C3.7458 8.89976 3.75442 8.89974 3.76303 8.89969V12.2792H14.1195V8.89943C14.1379 8.89965 14.1563 8.89976 14.1747 8.89976H14.4816C14.9491 8.89976 15.4129 8.82711 15.8521 8.68573V12.8935C15.8521 13.5722 15.2726 14.1224 14.5576 14.1224H10.9828L11.7596 15.9659H12.8249C13.1824 15.9659 13.4722 16.241 13.4722 16.5803C13.4722 16.9196 13.1824 17.1947 12.8249 17.1947H11.3213H6.56122H5.05759C4.70011 17.1947 4.41031 16.9196 4.41031 16.5803C4.41031 16.241 4.70011 15.9659 5.05759 15.9659H6.12298L6.89977 14.1224H3.32497C2.61002 14.1224 2.03042 13.5722 2.03042 12.8935Z" fill="#B8BCC3"/>
</svg>
