<svg width="15" height="15" viewBox="0 0 15 15" fill="none" xmlns="http://www.w3.org/2000/svg">
<path fill-rule="evenodd" clip-rule="evenodd" d="M0 7.10526C0 4.20932 0 2.76134 0.70001 1.73945C0.979304 1.33174 1.33174 0.979304 1.73945 0.70001C2.76134 0 4.19384 0 7.05882 0C9.92381 0 11.3563 0 12.3782 0.70001C12.7859 0.979304 13.1383 1.33174 13.4176 1.73945C14.1176 2.76134 14.1176 4.20932 14.1176 7.10526L14.1176 7.24568C13.4018 6.90691 12.6229 6.73686 11.9119 6.73686C9.84572 6.73686 7.20605 8.17304 7.20605 11.0132C7.20605 12.4243 7.85769 13.4889 8.76686 14.2029C8.26071 14.2105 7.69509 14.2105 7.05882 14.2105C4.19384 14.2105 2.76134 14.2105 1.73945 13.5105C1.33174 13.2312 0.979304 12.8788 0.70001 12.4711C0 11.4492 0 10.0012 0 7.10526ZM12.0763 10.5129C12.0197 10.5602 11.9649 10.6102 11.9119 10.6631C11.8482 10.7268 11.7873 10.7945 11.7295 10.8662C11.6908 10.9143 11.6542 10.9633 11.6197 11.0132L11.6178 11.0158L11.6178 11.0132C11.6178 10.6149 11.8249 10.3856 11.9038 10.3221L11.9119 10.3156L11.9201 10.3221C11.9561 10.351 12.0188 10.4146 12.0763 10.5129ZM11.9648 10.2834L11.9624 10.2842C11.964 10.2835 11.9648 10.2833 11.9648 10.2834ZM11.8615 10.2842L11.8591 10.2834C11.8591 10.2833 11.8599 10.2835 11.8615 10.2842ZM3.5293 1.8422C2.97701 1.8422 2.5293 2.28992 2.5293 2.8422C2.5293 3.39449 2.97701 3.8422 3.5293 3.8422H7.05871C7.61099 3.8422 8.05871 3.39449 8.05871 2.8422C8.05871 2.28992 7.61099 1.8422 7.05871 1.8422H3.5293ZM3.5293 4.68431C2.97701 4.68431 2.5293 5.13202 2.5293 5.68431C2.5293 6.23659 2.97701 6.68431 3.5293 6.68431H8.82341C9.3757 6.68431 9.82341 6.23659 9.82341 5.68431C9.82341 5.13202 9.3757 4.68431 8.82341 4.68431H3.5293ZM3.5293 7.52641C2.97701 7.52641 2.5293 7.97413 2.5293 8.52641C2.5293 9.0787 2.97701 9.52641 3.5293 9.52641H6.17636C6.72864 9.52641 7.17636 9.0787 7.17636 8.52641C7.17636 7.97413 6.72864 7.52641 6.17636 7.52641H3.5293Z" fill="white" fill-opacity="0.65"/>
</svg>
