<svg width="27" height="26" viewBox="0 0 27 26" fill="none" xmlns="http://www.w3.org/2000/svg">
<g clip-path="url(#clip0_1297_20979)">
<path fill-rule="evenodd" clip-rule="evenodd" d="M25.6403 10.377C25.6403 15.6269 21.3844 19.8828 16.1345 19.8828C10.8845 19.8828 6.62861 15.6269 6.62861 10.377C6.62861 5.12701 10.8845 0.871094 16.1345 0.871094C21.3844 0.871094 25.6403 5.12701 25.6403 10.377ZM16.1343 3.19848C16.8921 3.19848 17.5064 3.81277 17.5064 4.57053V5.15039C18.1596 5.30578 18.7362 5.65904 19.1677 6.14112C19.4454 6.45144 19.665 6.81692 19.8076 7.22034C20.0601 7.93477 19.6856 8.71866 18.9712 8.97118C18.2567 9.22371 17.4729 8.84923 17.2203 8.13479C17.1992 8.0751 17.1662 8.01947 17.123 7.97119C17.0309 7.86831 16.9014 7.80678 16.7558 7.80678H16.1435L16.1343 7.80682L16.1252 7.80678H15.3128C15.1515 7.80678 15.0208 7.93753 15.0208 8.09881C15.0208 8.23605 15.1163 8.35478 15.2504 8.3841L17.4474 8.86469C18.9336 9.18979 19.9921 10.5064 19.9921 12.0268C19.9921 13.5552 18.9321 14.8375 17.5064 15.1762V15.756C17.5064 16.5138 16.8921 17.1281 16.1343 17.1281C15.3766 17.1281 14.7623 16.5138 14.7623 15.756V15.1762C13.6885 14.9212 12.8235 14.1313 12.4612 13.1061C12.2087 12.3916 12.5831 11.6078 13.2976 11.3552C14.012 11.1027 14.7959 11.4772 15.0484 12.1916C15.1167 12.3846 15.3008 12.5196 15.513 12.5196H16.7558C17.027 12.5196 17.248 12.2992 17.248 12.0268C17.248 11.795 17.0865 11.5947 16.861 11.5454L14.664 11.0648C13.2702 10.7599 12.2767 9.52561 12.2767 8.09881C12.2767 6.60999 13.3483 5.37146 14.7623 5.11247V4.57053C14.7623 3.81277 15.3766 3.19848 16.1343 3.19848ZM16.1345 22.1696C16.7318 22.1696 17.3187 22.1253 17.8922 22.0395C16.1484 24.1173 13.5322 25.4382 10.6074 25.4382C5.35749 25.4382 1.10156 21.1822 1.10156 15.9323C1.10156 13.0249 2.40678 10.4224 4.46324 8.67875C4.38326 9.23329 4.34186 9.80031 4.34186 10.377C4.34186 16.8899 9.62159 22.1696 16.1345 22.1696Z" fill="#7C0808" fill-opacity="0.73"/>
</g>
<defs>
<clipPath id="clip0_1297_20979">
<rect width="25.6115" height="25.6115" fill="white" transform="translate(0.414062 0.300781)"/>
</clipPath>
</defs>
</svg>
