<svg width="19" height="18" viewBox="0 0 19 18" fill="none" xmlns="http://www.w3.org/2000/svg">
<ellipse cx="14.7937" cy="14.0244" rx="2.29373" ry="2.05072" stroke="white" stroke-opacity="0.65" stroke-width="2"/>
<path d="M18.0012 16.8955L16.625 15.665" stroke="white" stroke-opacity="0.65" stroke-width="2" stroke-linecap="round"/>
<path fill-rule="evenodd" clip-rule="evenodd" d="M0 8C0 4.22876 0 2.34315 1.17157 1.17157C2.34315 0 4.22876 0 8 0H9.613C13.3842 0 15.2698 0 16.4414 1.17157C17.613 2.34315 17.613 4.22876 17.613 8V9.5V9.57575C16.7422 9.11018 15.7588 8.87471 14.8614 8.87471C12.5266 8.87471 9.60938 10.4686 9.60938 13.5622C9.60938 15.4133 10.6538 16.7274 11.9929 17.4844C11.2952 17.5 10.5071 17.5 9.61299 17.5H8C4.22876 17.5 2.34315 17.5 1.17157 16.3284C0 15.1569 0 13.2712 0 9.5V8ZM4.40625 2.50009C3.85397 2.50009 3.40625 2.94781 3.40625 3.50009C3.40625 4.05238 3.85397 4.50009 4.40625 4.50009H8.8095C9.36178 4.50009 9.8095 4.05238 9.8095 3.50009C9.8095 2.94781 9.36178 2.50009 8.8095 2.50009H4.40625ZM4.40625 6.00009C3.85397 6.00009 3.40625 6.44781 3.40625 7.00009C3.40625 7.55238 3.85397 8.0001 4.40625 8.0001H11.0111C11.5634 8.0001 12.0111 7.55238 12.0111 7.0001C12.0111 6.44781 11.5634 6.0001 11.0111 6.0001L4.40625 6.00009ZM4.40625 9.5001C3.85397 9.5001 3.40625 9.94781 3.40625 10.5001C3.40625 11.0524 3.85397 11.5001 4.40625 11.5001H7.70869C8.26097 11.5001 8.70869 11.0524 8.70869 10.5001C8.70869 9.94781 8.26097 9.5001 7.70869 9.5001H4.40625Z" fill="white" fill-opacity="0.65"/>
</svg>
