<svg width="25" height="25" viewBox="0 0 25 25" fill="none" xmlns="http://www.w3.org/2000/svg">
<g clip-path="url(#clip0_1297_20992)">
<path fill-rule="evenodd" clip-rule="evenodd" d="M23.5268 17.4088C23.5268 22.5882 18.8354 24.9152 12.2673 24.9152C5.69928 24.9152 1.00781 22.5882 1.00781 17.4464C1.00781 11.8166 3.82268 8.96401 9.45245 6.11159L7.45879 2.40024C7.33988 2.21424 7.27367 1.99946 7.26725 1.77879C7.2608 1.55812 7.31437 1.33985 7.42224 1.14723C7.5301 0.954614 7.68822 0.794881 7.87973 0.685064C8.07124 0.575247 8.28897 0.519463 8.50968 0.523658H16.4664C16.6733 0.528918 16.8755 0.586751 17.0539 0.691711C17.2323 0.796672 17.3811 0.945307 17.4862 1.12363C17.5912 1.30194 17.6493 1.50408 17.6548 1.711C17.6602 1.91792 17.6128 2.12282 17.5174 2.30642L15.0822 6.11159C20.712 8.92648 23.5268 11.7791 23.5268 17.4088ZM13.3562 9.03854C13.3562 8.43714 12.8687 7.94962 12.2673 7.94962C11.6659 7.94962 11.1784 8.43714 11.1784 9.03854V10.1302C9.56326 10.1979 8.27463 11.5286 8.27463 13.1604C8.27463 14.5857 9.26707 15.8187 10.6595 16.1233L13.226 16.6847C13.7255 16.794 14.0822 17.237 14.0822 17.7491C14.0822 18.351 13.5942 18.8388 12.9933 18.8388H11.5414C11.069 18.8388 10.6642 18.5374 10.5142 18.113C10.3138 17.5459 9.69163 17.2488 9.12461 17.4492C8.55758 17.6496 8.2604 18.2717 8.46081 18.8388C8.87014 19.9969 9.91466 20.857 11.1784 20.9968V22.1056C11.1784 22.707 11.6659 23.1945 12.2673 23.1945C12.8687 23.1945 13.3562 22.707 13.3562 22.1056V20.9968C14.99 20.8161 16.2601 19.4301 16.2601 17.7491C16.2601 16.2143 15.1915 14.8853 13.6914 14.5572L11.1249 13.9957C10.7323 13.9099 10.4525 13.5622 10.4525 13.1604C10.4525 12.6882 10.8353 12.3053 11.3076 12.3053H12.9933C13.3157 12.3053 13.6043 12.4441 13.8052 12.6686C13.8996 12.774 13.9731 12.8971 14.0205 13.0312C14.2209 13.5982 14.8431 13.8954 15.4101 13.695C15.9771 13.4945 16.2743 12.8724 16.0739 12.3054C15.9301 11.8985 15.7085 11.5296 15.428 11.2161C14.907 10.634 14.1772 10.2384 13.3562 10.1475V9.03854Z" fill="#5B845D"/>
</g>
<defs>
<clipPath id="clip0_1297_20992">
<rect width="24.3919" height="24.3919" fill="white" transform="translate(0.0703125 0.523438)"/>
</clipPath>
</defs>
</svg>
