<svg width="26" height="25" viewBox="0 0 26 25" fill="none" xmlns="http://www.w3.org/2000/svg">
<g clip-path="url(#clip0_1297_20967)">
<path fill-rule="evenodd" clip-rule="evenodd" d="M0.882812 9.89884V12.8656C0.882812 14.553 3.58408 15.9703 7.20284 16.285V11.8702C7.20284 11.7997 7.20477 11.73 7.20855 11.6611C5.19726 11.5176 3.37039 11.0908 1.93644 10.4511C1.56458 10.2852 1.21086 10.1012 0.882812 9.89884ZM16.5634 3.65644V6.21853C14.4103 6.28934 12.388 6.70696 10.7925 7.41607C9.91679 7.80528 9.07326 8.32516 8.41919 9.01244C8.27 9.16921 8.12652 9.33962 7.99368 9.5231C5.92601 9.44529 4.12043 9.04068 2.82379 8.46217C2.09897 8.13881 1.58073 7.78232 1.25831 7.44212C1.03437 7.20582 0.926734 7.0031 0.882812 6.83595V3.65644C0.882812 1.73197 4.39302 0.171875 8.72308 0.171875C13.0531 0.171875 16.5634 1.73197 16.5634 3.65644ZM8.72286 5.27903C11.7464 5.27903 14.1975 4.57415 14.1975 3.70463C14.1975 2.83513 11.7464 2.13023 8.72286 2.13023C5.69932 2.13023 3.24824 2.83513 3.24824 3.70463C3.24824 4.57415 5.69932 5.27903 8.72286 5.27903ZM9.38069 21.0793V18.1125C9.70874 18.315 10.0625 18.4989 10.4343 18.6648C12.221 19.4619 14.6175 19.9283 17.2208 19.9283C19.8241 19.9283 22.2206 19.4619 24.0073 18.6648C24.3793 18.4988 24.7332 18.3148 25.0612 18.1123V21.0793C25.0612 22.9958 21.5767 24.5638 17.221 24.5638C12.8653 24.5638 9.38069 22.9958 9.38069 21.0793ZM9.75619 15.6558C9.53225 15.4196 9.42461 15.2168 9.38069 15.0497V11.8702C9.38069 9.94571 12.8909 8.38562 17.221 8.38562C21.5511 8.38562 25.0612 9.94571 25.0612 11.8702V15.0485C25.0175 15.2159 24.9098 15.419 24.6854 15.6558C24.3629 15.9961 23.8448 16.3525 23.12 16.6759C21.673 17.3215 19.5922 17.7505 17.2208 17.7505C14.8493 17.7505 12.7686 17.3215 11.3217 16.6759C10.5969 16.3525 10.0786 15.9961 9.75619 15.6558ZM22.6954 11.9184C22.6954 12.7879 20.2443 13.4928 17.2207 13.4928C14.1972 13.4928 11.7461 12.7879 11.7461 11.9184C11.7461 11.0489 14.1972 10.344 17.2207 10.344C20.2443 10.344 22.6954 11.0489 22.6954 11.9184Z" fill="#334155"/>
</g>
<defs>
<clipPath id="clip0_1297_20967">
<rect width="24.3919" height="24.3919" fill="white" transform="translate(0.671875 0.171875)"/>
</clipPath>
</defs>
</svg>
