<svg width="16" height="16" viewBox="0 0 16 16" fill="none" xmlns="http://www.w3.org/2000/svg">
<path fill-rule="evenodd" clip-rule="evenodd" d="M11.1462 9.42857C13.6709 9.42857 15.7176 7.38187 15.7176 4.85714C15.7176 2.33241 13.6709 0.285713 11.1462 0.285713C8.62147 0.285713 6.57478 2.33241 6.57478 4.85714C6.57478 7.38187 8.62147 9.42857 11.1462 9.42857ZM11.1462 3C11.5407 3 11.8605 3.31979 11.8605 3.71428V6C11.8605 6.39449 11.5407 6.71428 11.1462 6.71428C10.7517 6.71428 10.4319 6.39449 10.4319 6V3.71428C10.4319 3.31979 10.7517 3 11.1462 3ZM2.39552 7.71428H0.289062V12.2857L2.3787 14.3753C3.236 15.2327 4.39877 15.7143 5.61118 15.7143H12.2891C13.2358 15.7143 14.0033 14.9467 14.0033 14C14.0033 13.0533 13.2358 12.2857 12.2891 12.2857H9.11551C9.0052 12.6589 8.80281 13.0105 8.50835 13.3049C7.56667 14.2466 6.03991 14.2466 5.09823 13.3049L3.44107 11.6478C3.16213 11.3688 3.16213 10.9166 3.44107 10.6376C3.72002 10.3587 4.17229 10.3587 4.45122 10.6376L6.10839 12.2947C6.49217 12.6786 7.11441 12.6786 7.49821 12.2947C7.84334 11.9497 7.8781 11.4117 7.60248 11.0277L5.628 9.05322C4.7707 8.19592 3.60793 7.71428 2.39552 7.71428Z" fill="#B8BCC3"/>
</svg>
