<svg width="18" height="19" viewBox="0 0 18 19" fill="none" xmlns="http://www.w3.org/2000/svg">
<path d="M9 5.28446C9.2125 5.28446 9.39063 5.35681 9.53438 5.5015C9.67813 5.64619 9.75 5.82548 9.75 6.03938C9.75 6.25327 9.67813 6.43256 9.53438 6.57725C9.39063 6.72194 9.2125 6.79429 9 6.79429C8.7875 6.79429 8.60938 6.72194 8.46563 6.57725C8.32188 6.43256 8.25 6.25327 8.25 6.03938C8.25 5.82548 8.32188 5.64619 8.46563 5.5015C8.60938 5.35681 8.7875 5.28446 9 5.28446ZM8.25 8.30411H9.75V12.8336H8.25V8.30411ZM9 1.5099C7.9625 1.5099 6.9875 1.70806 6.075 2.10439C5.1625 2.50072 4.36875 3.0386 3.69375 3.71802C3.01875 4.39744 2.48438 5.19639 2.09063 6.11487C1.69687 7.03334 1.5 8.01473 1.5 9.05903C1.5 10.1033 1.69687 11.0847 2.09063 12.0032C2.48438 12.9217 3.01875 13.7206 3.69375 14.4C4.36875 15.0795 5.1625 15.6173 6.075 16.0137C6.9875 16.41 7.9625 16.6082 9 16.6082C10.0375 16.6082 11.0125 16.41 11.925 16.0137C12.8375 15.6173 13.6313 15.0795 14.3063 14.4C14.9813 13.7206 15.5156 12.9217 15.9094 12.0032C16.3031 11.0847 16.5 10.1033 16.5 9.05903C16.5 8.01473 16.3031 7.03334 15.9094 6.11487C15.5156 5.19639 14.9813 4.39744 14.3063 3.71802C13.6313 3.0386 12.8375 2.50072 11.925 2.10439C11.0125 1.70806 10.0375 1.5099 9 1.5099Z" fill="#425572"/>
</svg>
