<svg width="13" height="12" viewBox="0 0 13 12" fill="none" xmlns="http://www.w3.org/2000/svg">
<path fill-rule="evenodd" clip-rule="evenodd" d="M9.16034 3.041C9.06668 3.28123 8.84609 3.43785 8.60137 3.43785H7.1896V5.79499C7.1896 6.15003 6.91871 6.43785 6.58456 6.43785C6.25041 6.43785 5.97952 6.15003 5.97952 5.79499V3.43785H4.56775C4.32303 3.43785 4.10242 3.28123 4.00877 3.041C3.91511 2.80078 3.96688 2.52428 4.13992 2.34043L6.15673 0.197566C6.39301 -0.0534855 6.77611 -0.0534855 7.01239 0.197566L9.02917 2.34043C9.20221 2.52428 9.254 2.80078 9.16034 3.041ZM1.34086 7.14118C1.23388 7.14118 1.13129 7.18633 1.05564 7.26671C0.979997 7.34708 0.9375 7.45609 0.9375 7.56975V10.7156C0.9375 11.0567 1.06499 11.3837 1.29193 11.6248C1.51886 11.8659 1.82665 12.0013 2.14758 12.0013H11.0215C11.3424 12.0013 11.6503 11.8659 11.8772 11.6248C12.1042 11.3837 12.2316 11.0567 12.2316 10.7156V7.56975C12.2316 7.45609 12.1891 7.34708 12.1135 7.26671C12.0378 7.18633 11.9352 7.14118 11.8283 7.14118H9.42963C9.10863 7.14118 8.80087 7.27664 8.57393 7.51776C8.347 7.75888 8.21951 8.08591 8.21951 8.42689C8.21951 9.26198 7.43255 9.91144 6.58271 9.90535C5.75619 9.89944 4.99262 9.2469 4.99262 8.42689C4.99262 8.08591 4.86513 7.75888 4.6382 7.51776C4.41126 7.27664 4.10347 7.14118 3.78254 7.14118H1.34086Z" fill="white"/>
</svg>
