<svg width="12" height="12" viewBox="0 0 12 12" fill="none" xmlns="http://www.w3.org/2000/svg">
<path fill-rule="evenodd" clip-rule="evenodd" d="M8.73677 3.041C8.63726 3.28123 8.40287 3.43785 8.14286 3.43785H6.64286V5.79499C6.64286 6.15003 6.35504 6.43785 6 6.43785C5.64496 6.43785 5.35714 6.15003 5.35714 5.79499V3.43785H3.85714C3.59713 3.43785 3.36273 3.28123 3.26322 3.041C3.16371 2.80078 3.21872 2.52428 3.40257 2.34043L5.54543 0.197566C5.79648 -0.0534855 6.20352 -0.0534855 6.45457 0.197566L8.5974 2.34043C8.78126 2.52428 8.83629 2.80078 8.73677 3.041ZM0.428571 7.14118C0.314907 7.14118 0.205899 7.18633 0.125526 7.26671C0.0451529 7.34708 0 7.45609 0 7.56975V10.7156C0 11.0567 0.135459 11.3837 0.376577 11.6248C0.617695 11.8659 0.944717 12.0013 1.28571 12.0013H10.7143C11.0553 12.0013 11.3823 11.8659 11.6235 11.6248C11.8646 11.3837 12 11.0567 12 10.7156V7.56975C12 7.45609 11.9548 7.34708 11.8745 7.26671C11.7941 7.18633 11.6851 7.14118 11.5714 7.14118H9.02289C8.68183 7.14118 8.35483 7.27664 8.11371 7.51776C7.87259 7.75888 7.73714 8.08591 7.73714 8.42689C7.73714 9.26198 6.90099 9.91144 5.99804 9.90535C5.11986 9.89944 4.30857 9.2469 4.30857 8.42689C4.30857 8.08591 4.1731 7.75888 3.93199 7.51776C3.69087 7.27664 3.36384 7.14118 3.02285 7.14118H0.428571Z" fill="white"/>
</svg>
