<svg width="74" height="74" viewBox="0 0 74 74" fill="none" xmlns="http://www.w3.org/2000/svg">
<g filter="url(#filter0_dd_2747_85)">
<rect x="11" y="7" width="50" height="50" rx="15" fill="#1AA47D" shape-rendering="crispEdges"/>
<path fill-rule="evenodd" clip-rule="evenodd" d="M39.1255 27.4758C39.0118 27.7504 38.7439 27.9294 38.4467 27.9294H36.7325V30.6232C36.7325 31.029 36.4035 31.3579 35.9978 31.3579C35.592 31.3579 35.2631 31.029 35.2631 30.6232V27.9294H33.5488C33.2516 27.9294 32.9837 27.7504 32.87 27.4758C32.7563 27.2013 32.8192 26.8853 33.0293 26.6752L35.4783 24.2262C35.7652 23.9393 36.2304 23.9393 36.5173 24.2262L38.9662 26.6752C39.1763 26.8853 39.2392 27.2013 39.1255 27.4758ZM29.6304 32.1617C29.5005 32.1617 29.3759 32.2133 29.2841 32.3052C29.1922 32.397 29.1406 32.5216 29.1406 32.6515V36.2468C29.1406 36.6366 29.2954 37.0103 29.571 37.2859C29.8466 37.5614 30.2203 37.7162 30.61 37.7162H41.3855C41.7752 37.7162 42.149 37.5614 42.4246 37.2859C42.7001 37.0103 42.8549 36.6366 42.8549 36.2468V32.6515C42.8549 32.5216 42.8033 32.397 42.7115 32.3052C42.6196 32.2133 42.495 32.1617 42.3651 32.1617H39.4525C39.0627 32.1617 38.689 32.3165 38.4134 32.5921C38.1379 32.8677 37.9831 33.2414 37.9831 33.6311C37.9831 34.5855 37.0275 35.3277 35.9955 35.3208C34.9919 35.314 34.0647 34.5683 34.0647 33.6311C34.0647 33.2414 33.9099 32.8677 33.6343 32.5921C33.3588 32.3165 32.985 32.1617 32.5953 32.1617H29.6304Z" fill="white"/>
</g>
<defs>
<filter id="filter0_dd_2747_85" x="0" y="0" width="74" height="74" filterUnits="userSpaceOnUse" color-interpolation-filters="sRGB">
<feFlood flood-opacity="0" result="BackgroundImageFix"/>
<feColorMatrix in="SourceAlpha" type="matrix" values="0 0 0 0 0 0 0 0 0 0 0 0 0 0 0 0 0 0 127 0" result="hardAlpha"/>
<feOffset dy="2"/>
<feGaussianBlur stdDeviation="3"/>
<feComposite in2="hardAlpha" operator="out"/>
<feColorMatrix type="matrix" values="0 0 0 0 0 0 0 0 0 0 0 0 0 0 0 0 0 0 0.15 0"/>
<feBlend mode="normal" in2="BackgroundImageFix" result="effect1_dropShadow_2747_85"/>
<feColorMatrix in="SourceAlpha" type="matrix" values="0 0 0 0 0 0 0 0 0 0 0 0 0 0 0 0 0 0 127 0" result="hardAlpha"/>
<feOffset dx="1" dy="5"/>
<feGaussianBlur stdDeviation="6"/>
<feComposite in2="hardAlpha" operator="out"/>
<feColorMatrix type="matrix" values="0 0 0 0 0 0 0 0 0 0 0 0 0 0 0 0 0 0 0.16 0"/>
<feBlend mode="normal" in2="effect1_dropShadow_2747_85" result="effect2_dropShadow_2747_85"/>
<feBlend mode="normal" in="SourceGraphic" in2="effect2_dropShadow_2747_85" result="shape"/>
</filter>
</defs>
</svg>
