<svg width="33" height="33" viewBox="0 0 33 33" fill="none" xmlns="http://www.w3.org/2000/svg">
<g filter="url(#filter0_ii_600_67559)">
<rect width="33" height="33" rx="16.5" fill="white"/>
<path d="M23.4052 15.378C23.864 15.8591 24.0933 16.0996 24.0933 16.5C24.0933 16.9004 23.864 17.1409 23.4052 17.622C22.066 19.0264 19.4757 21.25 16.5 21.25C13.5243 21.25 10.934 19.0264 9.59478 17.622C9.13604 17.1409 8.90667 16.9004 8.90667 16.5C8.90667 16.0996 9.13604 15.8591 9.59478 15.378C10.934 13.9736 13.5243 11.75 16.5 11.75C19.4757 11.75 22.066 13.9736 23.4052 15.378Z" fill="#388E3C" fill-opacity="0.74"/>
<ellipse cx="16.5" cy="16.5" rx="2.625" ry="2.375" fill="#F8FEF8"/>
</g>
<defs>
<filter id="filter0_ii_600_67559" x="-2" y="-2" width="37" height="37" filterUnits="userSpaceOnUse" color-interpolation-filters="sRGB">
<feFlood flood-opacity="0" result="BackgroundImageFix"/>
<feBlend mode="normal" in="SourceGraphic" in2="BackgroundImageFix" result="shape"/>
<feColorMatrix in="SourceAlpha" type="matrix" values="0 0 0 0 0 0 0 0 0 0 0 0 0 0 0 0 0 0 127 0" result="hardAlpha"/>
<feOffset dx="2" dy="2"/>
<feGaussianBlur stdDeviation="1.5"/>
<feComposite in2="hardAlpha" operator="arithmetic" k2="-1" k3="1"/>
<feColorMatrix type="matrix" values="0 0 0 0 0.88803 0 0 0 0 0.968566 0 0 0 0 0.891776 0 0 0 0.5 0"/>
<feBlend mode="normal" in2="shape" result="effect1_innerShadow_600_67559"/>
<feColorMatrix in="SourceAlpha" type="matrix" values="0 0 0 0 0 0 0 0 0 0 0 0 0 0 0 0 0 0 127 0" result="hardAlpha"/>
<feOffset dx="-2" dy="-2"/>
<feGaussianBlur stdDeviation="1"/>
<feComposite in2="hardAlpha" operator="arithmetic" k2="-1" k3="1"/>
<feColorMatrix type="matrix" values="0 0 0 0 0.952365 0 0 0 0 1 0 0 0 0 0.95458 0 0 0 1 0"/>
<feBlend mode="normal" in2="effect1_innerShadow_600_67559" result="effect2_innerShadow_600_67559"/>
</filter>
</defs>
</svg>
