<svg width="16" height="11" viewBox="0 0 16 11" fill="none" xmlns="http://www.w3.org/2000/svg">
<path d="M14.7221 4.74626C14.9009 4.95298 15 5.22154 15 5.50001C15 5.77848 14.9009 6.04704 14.7221 6.25376C13.5891 7.52502 11.0103 10 8.00001 10C4.98966 10 2.41091 7.52502 1.27799 6.25376C1.09905 6.04704 1 5.77848 1 5.50001C1 5.22154 1.09905 4.95298 1.27799 4.74626C2.41091 3.475 4.98966 1 8.00001 1C11.0103 1 13.5891 3.475 14.7221 4.74626Z" stroke="#62A165" stroke-width="1.5" stroke-linecap="round" stroke-linejoin="round"/>
<path d="M7.8767 7.56246C9.0685 7.56246 10.0347 6.72954 10.0347 5.62498C10.0347 4.52042 9.0685 3.625 7.8767 3.625C6.6849 3.625 5.71875 4.52042 5.71875 5.62498C5.71875 6.72954 6.6849 7.56246 7.8767 7.56246Z" stroke="#62A165" stroke-width="1.5" stroke-linecap="round" stroke-linejoin="round"/>
</svg>
