<svg width="26" height="26" viewBox="0 0 26 26" fill="none" xmlns="http://www.w3.org/2000/svg">
<rect width="26" height="26" rx="13" transform="matrix(-1 0 0 1 26 0)" fill="#E4E4E4"/>
<path d="M12.8742 9.34772C13.1445 9.03941 13.1445 8.53954 12.8742 8.23123C12.6038 7.92292 12.1654 7.92292 11.8951 8.23123L8.20277 12.4418C7.93241 12.7501 7.93241 13.2499 8.20277 13.5582L11.8951 17.7688C12.1654 18.0771 12.6038 18.0771 12.8742 17.7688C13.1445 17.4605 13.1445 16.9606 12.8742 16.6523L10.3637 13.7895H19.3077C19.69 13.7895 20 13.436 20 13C20 12.564 19.69 12.2105 19.3077 12.2105H10.3637L12.8742 9.34772Z" fill="#334155" stroke="#334155" stroke-width="0.5" stroke-linecap="round"/>
</svg>
