<svg width="20" height="20" viewBox="0 0 26 26" fill="none" xmlns="http://www.w3.org/2000/svg">
<!-- <circle cx="14" cy="14" r="10" transform="matrix(-1 0 0 1 26 0)" fill="#E4E4E4"/> -->
<rect width="16.5244" height="16.5244" transform="matrix(-1 0 0 1 20 5)" fill="#E4E4E4"/>
<path d="M11.8742 9.34772C12.1445 9.03941 12.1445 8.53954 11.8742 8.23123C11.6038 7.92292 11.1654 7.92292 10.8951 8.23123L7.20277 12.4418C6.93241 12.7501 6.93241 13.2499 7.20277 13.5582L10.8951 17.7688C11.1654 18.0771 11.6038 18.0771 11.8742 17.7688C12.1445 17.4605 12.1445 16.9606 11.8742 16.6523L9.36369 13.7895H18.3077C18.69 13.7895 19 13.436 19 13C19 12.564 18.69 12.2105 18.3077 12.2105H9.36369L11.8742 9.34772Z" fill="#334155" stroke="#334155" stroke-width="0.5" stroke-linecap="round"/>
</svg>
